<svg xmlns="http://www.w3.org/2000/svg" viewBox="0 0 29.56 29.56"><defs><style>.cls-1{fill:#a97bbc;}.cls-2{fill:#fff;}.cls-3{fill:#793e88;}.cls-4{fill:#c4c4c4;}</style></defs><g id="Layer_2" data-name="Layer 2"><g id="Layer_1-2" data-name="Layer 1"><path class="cls-1" d="M29.56,14.78A14.78,14.78,0,1,1,14.78,0,14.78,14.78,0,0,1,29.56,14.78Z"/><path class="cls-2" d="M6.37,15.71a2.62,2.62,0,0,0-.46,1.46c0,.64.5,1.15.6,1.79a3.79,3.79,0,0,0,.39,1.7,2.27,2.27,0,0,0,.95.72.55.55,0,0,0,.18,0,12.85,12.85,0,0,0-.1-5.46s-.34-.81-.8-.76A1.35,1.35,0,0,0,6.37,15.71Z"/><path class="cls-3" d="M7.88,21.44h0a2.4,2.4,0,0,1-1-.74,2.45,2.45,0,0,1-.36-1.3,3,3,0,0,0,0-.43,3.1,3.1,0,0,0-.29-.84,2.87,2.87,0,0,1-.31-.95,2.68,2.68,0,0,1,.47-1.5,1.42,1.42,0,0,1,.81-.59c.48,0,.83.77.85.8a13.26,13.26,0,0,1,.12,5.49s0,0-.06.05Zm0-.11H8a13.36,13.36,0,0,0-.14-5.39s-.32-.76-.73-.72a1.29,1.29,0,0,0-.72.53A2.55,2.55,0,0,0,6,17.17a2.92,2.92,0,0,0,.3.92,3.15,3.15,0,0,1,.31.86c0,.14,0,.3,0,.44A2.38,2.38,0,0,0,7,20.63,2.24,2.24,0,0,0,7.87,21.33Z"/><path class="cls-3" d="M7.7,20.41a1.21,1.21,0,0,0,.16-.69A2.24,2.24,0,0,0,7.57,19l-.26-.39c-.1-.19.07-.59.11-.79a2.79,2.79,0,0,1,.13-.7.93.93,0,0,0,0-.44.57.57,0,0,0-.51-.53.87.87,0,0,0-.68.38.67.67,0,0,0-.11.69c.1.19.26.35.37.53a.67.67,0,0,1,.1.23,1.36,1.36,0,0,0-.08-.39,1.56,1.56,0,0,1-.34-.68c0-.33.3-.55.58-.61a.49.49,0,0,1,.51.29c.14.25,0,.58-.08.81s-.06.57-.13.85a.7.7,0,0,0,.07.63,3.74,3.74,0,0,1,.42.69h0a2.85,2.85,0,0,1-.33-.25A3.22,3.22,0,0,1,7,18.88a1.05,1.05,0,0,0,.06.24l.2.25a1.94,1.94,0,0,0,.27.23,1.31,1.31,0,0,0,.24.17,1.15,1.15,0,0,1,0,.37S7.72,20.3,7.7,20.41Z"/><path class="cls-2" d="M22.88,15.71a2.62,2.62,0,0,1,.46,1.46c-.05.64-.51,1.15-.6,1.79a3.67,3.67,0,0,1-.4,1.7,2.15,2.15,0,0,1-.95.72.5.5,0,0,1-.17,0,12.68,12.68,0,0,1,.1-5.46s.34-.81.79-.76A1.34,1.34,0,0,1,22.88,15.71Z"/><path class="cls-3" d="M21.37,21.44h-.16a.12.12,0,0,1-.07-.05,13.49,13.49,0,0,1,.13-5.49s.36-.84.85-.8a1.42,1.42,0,0,1,.8.58,2.67,2.67,0,0,1,.48,1.51,3.12,3.12,0,0,1-.31.95,3.5,3.5,0,0,0-.3.84c0,.14,0,.28,0,.43a2.54,2.54,0,0,1-.36,1.3,2.37,2.37,0,0,1-1,.74h0Zm-.13-.12h.14a2.31,2.31,0,0,0,.92-.7,2.47,2.47,0,0,0,.33-1.24c0-.14,0-.3.05-.44a3.5,3.5,0,0,1,.3-.86,2.94,2.94,0,0,0,.31-.92,2.63,2.63,0,0,0-.46-1.43,1.32,1.32,0,0,0-.72-.53c-.41,0-.73.72-.73.72A13.18,13.18,0,0,0,21.24,21.32Z"/><path class="cls-3" d="M21.55,20.41a1.22,1.22,0,0,1-.17-.69,2.5,2.5,0,0,1,.3-.74c.08-.13.18-.26.25-.39s-.06-.59-.1-.79a2.79,2.79,0,0,0-.13-.7.93.93,0,0,1,0-.44.56.56,0,0,1,.51-.53.87.87,0,0,1,.68.38.65.65,0,0,1,.1.69,6.3,6.3,0,0,1-.37.53.92.92,0,0,0-.09.23,1.36,1.36,0,0,1,.08-.39,1.56,1.56,0,0,0,.34-.68c0-.33-.3-.55-.58-.61a.49.49,0,0,0-.51.29c-.14.25,0,.58.07.81s.07.57.14.85a.7.7,0,0,1-.08.63,4.33,4.33,0,0,0-.41.69h0c.1-.09.23-.15.33-.25a3.22,3.22,0,0,0,.39-.43l-.06.24-.21.25a1.86,1.86,0,0,1-.26.23,1.38,1.38,0,0,1-.25.17,1.54,1.54,0,0,0,0,.37A1.79,1.79,0,0,0,21.55,20.41Z"/><path class="cls-2" d="M22.65,14.87S22.36,10.74,16,9.31h-3c-6.32,1.43-6.62,5.56-6.62,5.56s1.48,3.36,1.38,5.3S8,24.29,12.58,26.6a3.64,3.64,0,0,0,2,.4,3.62,3.62,0,0,0,2-.4c4.55-2.31,4.86-4.48,4.76-6.43S22.65,14.87,22.65,14.87Z"/><path class="cls-3" d="M14.8,27.07h-.51a3.52,3.52,0,0,1-1.74-.43C8,24.32,7.67,22.08,7.76,20.17S6.4,14.93,6.39,14.9s0,0,0,0,.38-4.19,6.67-5.62h3a9.56,9.56,0,0,1,5.72,3.34,5.1,5.1,0,0,1,.95,2.28,0,0,0,0,1,0,0s-1.47,3.36-1.37,5.27-.19,4.15-4.8,6.48A3.6,3.6,0,0,1,14.8,27.07Zm-.26-.13h.26a3.64,3.64,0,0,0,1.68-.4c4.55-2.3,4.83-4.5,4.73-6.37s1.28-5.08,1.38-5.32-.54-4.13-6.56-5.5h-3a9.39,9.39,0,0,0-5.64,3.3,4.83,4.83,0,0,0-.93,2.2c.1.24,1.47,3.44,1.38,5.32s.19,4.07,4.73,6.36a3.48,3.48,0,0,0,1.68.41Z"/><path class="cls-3" d="M7.69,17.23s-.05,0,0,0a2,2,0,0,0,.06.23s0,0,0,0A1.55,1.55,0,0,0,7.69,17.23Z"/><path class="cls-3" d="M24.85,10.58a7.21,7.21,0,0,0-.34-1.29,10.78,10.78,0,0,0-2.3-3.15,1.52,1.52,0,0,0,.28-.09c.22-.08.52-.21.53-.48a0,0,0,0,0,0,0c-.79.13-1.35-.49-1.93-.9A13.39,13.39,0,0,0,19,3.43a9.56,9.56,0,0,0-4.56-.87,11.84,11.84,0,0,0-4.46,1,6.07,6.07,0,0,0-1.65,1.2,5.37,5.37,0,0,0-.56.7l-.14.22A9.64,9.64,0,0,0,6.37,7.07,7.59,7.59,0,0,0,5.26,9.13a7.94,7.94,0,0,0-.49,2.26A5,5,0,0,0,5,13.28a6.54,6.54,0,0,0,.82,1.57,13.9,13.9,0,0,1,1.53,3c.15.47.29.94.4,1.42a1.42,1.42,0,0,0,.18.27s.15-2.08.2-2.71c-.1-.54-.3-1-.41-1.6a4.84,4.84,0,0,1,.43-3A.85.85,0,0,1,8.25,12l.05-.08a.05.05,0,0,1,0,0l0,0a2.34,2.34,0,0,1,1.86-.63,20.71,20.71,0,0,1,2.2.29c.13.14.27.27.39.38a7.69,7.69,0,0,0,1.52.94,7.77,7.77,0,0,0,3.25.71,5,5,0,0,0,2.77-.84,5.06,5.06,0,0,0,.63-.53,2.91,2.91,0,0,1,.63,2.08,4.14,4.14,0,0,1-.08,1c-.1.55-.3,1.06-.4,1.6.05.63.18,2.73.2,2.71a1.14,1.14,0,0,0,.17-.27c.12-.48.25-.95.41-1.42a13.36,13.36,0,0,1,1.36-2.76l.2-.19a2.84,2.84,0,0,0,.73-1,4,4,0,0,0,.3-1.22l0-.06a3.41,3.41,0,0,0,.31-1A3,3,0,0,0,24.85,10.58Z"/><path class="cls-3" d="M21.35,19.62h0c-.07,0-.07,0-.2-1.95,0-.33,0-.63-.06-.8v0a7.72,7.72,0,0,1,.2-.83c.07-.25.15-.51.2-.77a4.53,4.53,0,0,0,.07-1,2.89,2.89,0,0,0-.58-2,5.84,5.84,0,0,1-.58.48,5,5,0,0,1-2.81.86,7.85,7.85,0,0,1-3.27-.72,6.88,6.88,0,0,1-1.53-1,3.33,3.33,0,0,1-.34-.32l-.05,0-.58-.09a14.08,14.08,0,0,0-1.59-.19h-.17a2.25,2.25,0,0,0-1.66.62h0l0,0h0l0,.05,0,0a.67.67,0,0,0-.14.26h0a4.7,4.7,0,0,0-.42,3c0,.26.12.52.19.77a7.75,7.75,0,0,1,.21.83v0c0,.17,0,.47-.05.8-.14,1.95-.14,1.95-.2,1.95h0a1.14,1.14,0,0,1-.18-.28s0,0,0,0c-.12-.48-.25-.95-.41-1.41a13.56,13.56,0,0,0-1.52-3,6.73,6.73,0,0,1-.83-1.58,5.38,5.38,0,0,1-.18-1.91A8.21,8.21,0,0,1,5.2,9.11,7.77,7.77,0,0,1,6.33,7,10.1,10.1,0,0,1,7.54,5.69a1.93,1.93,0,0,1,.13-.21,5.13,5.13,0,0,1,.57-.72,6.17,6.17,0,0,1,1.67-1.2,12.13,12.13,0,0,1,4.47-1.05c.2,0,.41,0,.61,0a9.71,9.71,0,0,1,4,.89,12.84,12.84,0,0,1,2.12,1.21l.34.26a2.34,2.34,0,0,0,1.36.65H23l.06,0a.09.09,0,0,1,0,.06c0,.32-.38.46-.57.54l-.19.06.22.24a9.85,9.85,0,0,1,2,2.86,7.52,7.52,0,0,1,.33,1.3,3.16,3.16,0,0,1,0,1,3.37,3.37,0,0,1-.32,1.05l0,0h0a3.87,3.87,0,0,1-.3,1.23A2.88,2.88,0,0,1,23.52,15l-.19.18A12.52,12.52,0,0,0,22,17.9a13.42,13.42,0,0,0-.41,1.41s0,0,0,0a1.62,1.62,0,0,1-.18.28ZM7.76,19.28l.08.13c0-.33.08-1.16.12-1.75,0-.32,0-.62.06-.79a7.58,7.58,0,0,0-.21-.82c-.07-.25-.14-.51-.19-.77a4.84,4.84,0,0,1,.43-3A.65.65,0,0,1,8.21,12v0l0,0a.1.1,0,0,1,.08-.05h0a2.33,2.33,0,0,1,1.73-.65h.17a13.88,13.88,0,0,1,1.61.2l.59.09,0,0,.06.06a2.34,2.34,0,0,0,.33.31,7.08,7.08,0,0,0,1.51.94,7.79,7.79,0,0,0,3.21.7,5,5,0,0,0,2.75-.83,5.4,5.4,0,0,0,.62-.52s0,0,0,0l0,0a3,3,0,0,1,.65,2.12,4.86,4.86,0,0,1-.08,1,6.69,6.69,0,0,1-.2.77c-.07.27-.15.54-.2.82s0,.47.05.79c0,.59.1,1.42.13,1.75l.08-.13a13.6,13.6,0,0,1,.41-1.42,12.83,12.83,0,0,1,1.36-2.77h0l.2-.19a2.61,2.61,0,0,0,.71-1,3.76,3.76,0,0,0,.3-1.21v0l0,0a3.46,3.46,0,0,0,.31-1,3.21,3.21,0,0,0,0-1,7.55,7.55,0,0,0-.33-1.28,9.74,9.74,0,0,0-2-2.82c-.09-.1-.19-.2-.28-.31a0,0,0,0,1,0,0,0,0,0,0,1,0,0L22.47,6c.22-.08.45-.19.49-.39h-.17a2.43,2.43,0,0,1-1.43-.68c-.11-.09-.22-.18-.34-.26a11.54,11.54,0,0,0-2.1-1.19A9.49,9.49,0,0,0,15,2.6l-.6,0a12.06,12.06,0,0,0-4.43,1A6,6,0,0,0,8.32,4.84a4.8,4.8,0,0,0-.55.7l-.14.22h0A10,10,0,0,0,6.42,7.1a7.92,7.92,0,0,0-1.11,2,8.47,8.47,0,0,0-.49,2.25A5.37,5.37,0,0,0,5,13.26a6.76,6.76,0,0,0,.82,1.56,13.74,13.74,0,0,1,1.53,3C7.5,18.32,7.64,18.8,7.76,19.28Z"/><path class="cls-2" d="M7.91,9.56a1.5,1.5,0,0,0,.15.23,3.49,3.49,0,0,0,.45.49,8.44,8.44,0,0,1-.68-1.9A5.21,5.21,0,0,1,7.9,5.72s-.05,0-.06,0A6.66,6.66,0,0,0,7.5,6.81a5.47,5.47,0,0,0,0,1.34A5.57,5.57,0,0,0,7.91,9.56Z"/><path class="cls-3" d="M8.51,10.34l0,0A3.83,3.83,0,0,1,8,9.82a1.53,1.53,0,0,1-.15-.23,5.15,5.15,0,0,1-.38-1.43V8.08a4.58,4.58,0,0,1,0-1.28A4.44,4.44,0,0,1,7.7,6l.09-.25a.14.14,0,0,1,.1-.08.09.09,0,0,1,.06,0,.35.35,0,0,1,0,.06,5.14,5.14,0,0,0-.08,2.64,9,9,0,0,0,.68,1.88.06.06,0,0,1,0,.08ZM7.74,6.19a3.07,3.07,0,0,0-.18.63,4.76,4.76,0,0,0,0,1.25v.07A5.19,5.19,0,0,0,8,9.54l.14.21a2.76,2.76,0,0,0,.21.25,10,10,0,0,1-.54-1.6A5,5,0,0,1,7.74,6.19Z"/><path class="cls-2" d="M19.92,11a8,8,0,0,1-1.73-.38l-.32-.11a4.45,4.45,0,0,0,2.22.87,3,3,0,0,0,1.19-.1,2.44,2.44,0,0,1-.92,1.1s0,0-.09,0l-.11.09a2.74,2.74,0,0,1-.63.22,5.46,5.46,0,0,1-2.66-.18,7.53,7.53,0,0,1-2.66-1.35,4.88,4.88,0,0,1-.69-.53,7.1,7.1,0,0,1-.82-.91l0-.05a6.41,6.41,0,0,0,5.08,3.56l.33,0a5.18,5.18,0,0,1-1.4-.08,9.42,9.42,0,0,1-3.53-1.6c-.91-.63-1.69-1.68-2.8-1.94a1.07,1.07,0,0,0-1.11.44,1.47,1.47,0,0,0,0,.29c.18-.86,1.44-.09,1.77.17s.84.76,1.28,1.11a11.2,11.2,0,0,0,2.74,1.59,4.94,4.94,0,0,0,4.71-.19,3.28,3.28,0,0,0,.77-.39,2.84,2.84,0,0,0,1.11-1.54,3.2,3.2,0,0,0,.51-.29,1.84,1.84,0,0,0,.44-.63A3.67,3.67,0,0,1,19.92,11Z"/><path class="cls-3" d="M17.49,13.8A6.72,6.72,0,0,1,15,13.29a10.77,10.77,0,0,1-2.74-1.6c-.22-.17-.43-.36-.63-.54s-.43-.39-.66-.57A2.61,2.61,0,0,0,9.76,10a.4.4,0,0,0-.43.35,0,0,0,0,1-.05,0,.09.09,0,0,1-.06,0,1.76,1.76,0,0,1,0-.31,0,0,0,0,1,0,0,1.12,1.12,0,0,1,.93-.49l.23,0a4.69,4.69,0,0,1,2,1.23,9.77,9.77,0,0,0,.87.72,9.2,9.2,0,0,0,3.51,1.59l.44.07a6.42,6.42,0,0,1-4.51-3.5.07.07,0,0,1,0-.07.06.06,0,0,1,.08,0l0,0a7.84,7.84,0,0,0,.82.91,5.33,5.33,0,0,0,.68.53,7.74,7.74,0,0,0,2.64,1.34,5.45,5.45,0,0,0,2.64.17,2.74,2.74,0,0,0,.61-.21l0,0,.09-.06a.16.16,0,0,1,.12-.05,2.18,2.18,0,0,0,.81-.95,2.88,2.88,0,0,1-1.09.08,4.67,4.67,0,0,1-2.25-.89.08.08,0,0,1,0-.08.07.07,0,0,1,.07,0l.32.12a7.74,7.74,0,0,0,1.72.37l.35,0a3.51,3.51,0,0,0,2.29-.79h.08a.06.06,0,0,1,0,.07,1.77,1.77,0,0,1-.45.65,3.22,3.22,0,0,1-.5.29,2.8,2.8,0,0,1-1.13,1.54,3,3,0,0,1-.77.4A3.78,3.78,0,0,1,17.49,13.8ZM9.76,9.92a2.74,2.74,0,0,1,1.32.57c.23.18.45.38.67.58s.4.37.62.54a11,11,0,0,0,2.72,1.57,6.47,6.47,0,0,0,2.4.51A3.74,3.74,0,0,0,19.75,13h0a3.21,3.21,0,0,0,.76-.39,2.68,2.68,0,0,0,1.08-1.5s0,0,0,0a2.9,2.9,0,0,0,.51-.29,1.91,1.91,0,0,0,.31-.38,3.76,3.76,0,0,1-2.17.65h-.36a8.21,8.21,0,0,1-1.72-.37,4.72,4.72,0,0,0,1.9.63,2.71,2.71,0,0,0,1.16-.1s0,0,.06,0a0,0,0,0,1,0,.06,2.42,2.42,0,0,1-.94,1.13h-.05l0,0-.09.06,0,0a3.23,3.23,0,0,1-.64.23,5.58,5.58,0,0,1-2.7-.18,7.8,7.8,0,0,1-2.68-1.36,5.38,5.38,0,0,1-.68-.54,5.21,5.21,0,0,1-.52-.53,6.46,6.46,0,0,0,4.78,3l.33,0a.05.05,0,0,1,.05,0,.06.06,0,0,1-.05.06,5,5,0,0,1-1.42-.09,9.26,9.26,0,0,1-3.55-1.61,10,10,0,0,1-.89-.72,4.57,4.57,0,0,0-1.89-1.21l-.21,0a1,1,0,0,0-.83.43.13.13,0,0,0,0,.06A.48.48,0,0,1,9.76,9.92Z"/><path class="cls-2" d="M21,6.8l.1.12.35.14,0,0a4.44,4.44,0,0,1-1.11-.73c-.31-.21-.6-.43-.9-.64l-.3-.22.36.31c.24.19.49.37.72.56a7.73,7.73,0,0,0,.64.49A.07.07,0,0,1,21,6.8Z"/><path class="cls-3" d="M21.47,7.12h0L21.1,7h0L21,6.83s0,0,0,0a0,0,0,0,1-.07,0,4.29,4.29,0,0,1-.48-.36l-.16-.14-.39-.3-.33-.26-.37-.3a.06.06,0,0,1,0-.08.05.05,0,0,1,.08,0l.31.22.35.25.54.39A4.24,4.24,0,0,0,21.52,7l0,0a.09.09,0,0,1,0,0s0,0,0,0Z"/><path class="cls-2" d="M22.66,7.64a4.48,4.48,0,0,1,1.4,1c.13.13.25.26.37.4a4.07,4.07,0,0,0-1.91-1.5l-.75-.18C22.06,7.44,22.38,7.53,22.66,7.64Z"/><path class="cls-3" d="M24.43,9.06l0,0c-.11-.13-.24-.27-.37-.4a4.29,4.29,0,0,0-1.38-.94,3.54,3.54,0,0,0-.43-.16l-.46-.16s-.05,0,0-.07a.06.06,0,0,1,.07,0l.48.12.28.06A4,4,0,0,1,24.48,9a.06.06,0,0,1,0,.08Z"/><path class="cls-2" d="M24.35,9.12a5.24,5.24,0,0,0-.94-.88,7.11,7.11,0,0,0-1.55-.74,2.5,2.5,0,0,1-.78-.44L21,7a13.74,13.74,0,0,1-1.43-1.08c-.48-.38-.92-.8-1.4-1.18l-.36-.29-.53-.35a6.22,6.22,0,0,0-4.65-.93A5.34,5.34,0,0,0,9.15,5.46a3.88,3.88,0,0,0-.56,1.85,2.93,2.93,0,0,0,.12,1c0-.22.06-.43.08-.59a1.55,1.55,0,0,1,0-.21,3.75,3.75,0,0,1,.18-1,3.5,3.5,0,0,1,1-1.72,5.36,5.36,0,0,1,4.13-1.19,8.24,8.24,0,0,1,3.73,1.69A14.54,14.54,0,0,0,20.23,6.9a12.54,12.54,0,0,1-3.33-1c-.54-.25-1.07-.53-1.6-.8s-1.07-.43-1.61-.67c0,0-.1.08-.07.09,1.89,1,3.6,2.22,5.7,2.71.52.12,1.06.2,1.59.29a4.47,4.47,0,0,1,1,.31h0a6.52,6.52,0,0,1,2.4,1.56,3.52,3.52,0,0,1,.41.56,2.59,2.59,0,0,0-.09-.42C24.55,9.35,24.41,9.19,24.35,9.12Z"/><path class="cls-3" d="M24.77,10s0,0-.05,0a3.43,3.43,0,0,0-.4-.54,6.73,6.73,0,0,0-2.38-1.55h0a4.64,4.64,0,0,0-1-.31l-.44-.07c-.38-.06-.77-.12-1.15-.21A15.72,15.72,0,0,1,15.1,5.4c-.49-.27-1-.56-1.5-.83a.07.07,0,0,1,0-.08.15.15,0,0,1,.13-.12h0c.22.1.44.18.66.27a8.7,8.7,0,0,1,.95.4l.33.17c.41.21.84.43,1.26.63a13,13,0,0,0,2.94.93,12.9,12.9,0,0,1-1.38-.94c-.21-.17-.42-.32-.63-.47a8.18,8.18,0,0,0-3.69-1.68,4.63,4.63,0,0,0-.65,0,5.13,5.13,0,0,0-3.44,1.21,3.59,3.59,0,0,0-1,1.69,3.71,3.71,0,0,0-.18,1l0,.22,0,.14c0,.13,0,.28-.05.44s0,.05,0,.05-.06,0-.06,0A3.06,3.06,0,0,1,8.53,7.3,4.15,4.15,0,0,1,9.1,5.43a5.36,5.36,0,0,1,3.5-2.3,6.31,6.31,0,0,1,4.69.93l.53.36.31.24.06,0,.72.6c.21.19.44.39.67.57l.28.23A13.64,13.64,0,0,0,21,7l.06,0h.05a2.35,2.35,0,0,0,.76.42l.21.09a5.63,5.63,0,0,1,1.35.66,4.73,4.73,0,0,1,.95.9l0,0a3.72,3.72,0,0,1,.29.37h0a2.23,2.23,0,0,1,.1.43.06.06,0,0,1,0,.06ZM22,7.77h0A6.77,6.77,0,0,1,24.4,9.35a4,4,0,0,1,.26.32l0-.11c-.11-.15-.22-.28-.29-.36l0,0a5,5,0,0,0-.93-.87,5.68,5.68,0,0,0-1.33-.66l-.22-.08A2.8,2.8,0,0,1,21,7.11h0l-.07,0a10.87,10.87,0,0,1-1.16-.86L19.51,6c-.23-.18-.46-.38-.68-.57s-.47-.41-.71-.6l-.06,0-.31-.24-.53-.35a6.17,6.17,0,0,0-4.6-.92A5.31,5.31,0,0,0,9.2,5.49a4.07,4.07,0,0,0-.56,1.82,3.29,3.29,0,0,0,0,.72s0-.1,0-.14a.78.78,0,0,0,0-.14c0-.07,0-.14,0-.21a3.87,3.87,0,0,1,.18-1,3.63,3.63,0,0,1,1-1.74,5.26,5.26,0,0,1,3.52-1.24q.35,0,.66,0a8.35,8.35,0,0,1,3.75,1.71l.63.47a9.13,9.13,0,0,0,1.7,1.1.05.05,0,0,1,0,.07.05.05,0,0,1-.06,0,12.27,12.27,0,0,1-3.34-1c-.43-.2-.86-.42-1.27-.63l-.33-.17c-.31-.15-.63-.28-.94-.4L13.7,4.5c.49.25,1,.53,1.45.81a16.24,16.24,0,0,0,4.18,1.87l1.14.21.45.07A4.8,4.8,0,0,1,22,7.77Z"/><path class="cls-2" d="M23.59,11A5.88,5.88,0,0,1,24,13a4.13,4.13,0,0,1,0,.5,3.8,3.8,0,0,1-.87,2,5.18,5.18,0,0,0,.17-1,5.12,5.12,0,0,0-.08-.87c0,.41-.13.81-.2,1.21a2,2,0,0,1-.24.72,4.46,4.46,0,0,1-.32.74c-.12.21-.3.45-.45.69a1.94,1.94,0,0,0,0,.24A2,2,0,0,0,22,18a.5.5,0,0,0,.05-.07,10.62,10.62,0,0,1,.86-1.72C24.39,15.05,24.9,12.44,23.59,11Z"/><path class="cls-3" d="M22,18h0a.1.1,0,0,1-.05,0,1.35,1.35,0,0,1,0-.6.38.38,0,0,0,0-.1c0-.08,0-.16,0-.24a0,0,0,0,0,0,0l.21-.32c.09-.13.17-.25.24-.37a4.75,4.75,0,0,0,.32-.72v0a1.81,1.81,0,0,0,.23-.7l.06-.32c.05-.29.11-.59.14-.88a.06.06,0,0,1,.06,0h0a.06.06,0,0,1,.06,0l0,.22a3.6,3.6,0,0,1,0,.66,4.8,4.8,0,0,1-.11.7,3.66,3.66,0,0,0,.69-1.77,4,4,0,0,0,0-.5,6.31,6.31,0,0,0-.37-2,.06.06,0,0,1,0-.07s.06,0,.07,0a3.16,3.16,0,0,1,.75,2.5,3.93,3.93,0,0,1-1.47,2.74c-.11.21-.23.42-.35.62a4.39,4.39,0,0,0-.51,1.07s0,0-.05.09A.05.05,0,0,1,22,18Zm.07-1a1.8,1.8,0,0,0,0,.22.49.49,0,0,0,0,.12,1.51,1.51,0,0,0,0,.37,5.46,5.46,0,0,1,.49-1,6.37,6.37,0,0,0,.35-.63s0,0,0,0a3.84,3.84,0,0,0,1.44-2.66,3.2,3.2,0,0,0-.53-2.19A5.53,5.53,0,0,1,24,13c0,.18,0,.35,0,.51a4,4,0,0,1-.88,2.06.06.06,0,0,1-.07,0,0,0,0,0,1,0-.06,5.19,5.19,0,0,0,.16-1,2.4,2.4,0,0,0,0-.46l-.09.49L23,14.9a1.9,1.9,0,0,1-.24.74,4.58,4.58,0,0,1-.32.74c-.07.12-.16.25-.25.38Z"/><path class="cls-2" d="M6.71,16.42a9.39,9.39,0,0,1-.65-1.21,4.83,4.83,0,0,1-.28-.89,3.55,3.55,0,0,1-.16-.91,2.08,2.08,0,0,1,.07-.55,4.86,4.86,0,0,1,.4-1.26,4.76,4.76,0,0,0-.81,1.85,3.36,3.36,0,0,1-.18-.87A3.06,3.06,0,0,1,6,10.36a6,6,0,0,1,.65-.68,3.64,3.64,0,0,0-1.82,2.17c-.25.83-.29,2.35.54,2.92a5.43,5.43,0,0,0,.73,1.49,10.1,10.1,0,0,0,1.16,1.45A3.32,3.32,0,0,0,6.71,16.42Z"/><path class="cls-3" d="M7.25,17.77l0,0A10.4,10.4,0,0,1,6,16.29a5.21,5.21,0,0,1-.73-1.48c-.81-.59-.81-2.09-.55-3a3.72,3.72,0,0,1,1.86-2.2.05.05,0,0,1,.07,0,0,0,0,0,1,0,.07,5,5,0,0,0-.65.66,3.1,3.1,0,0,0-.88,2.19,2.78,2.78,0,0,0,.12.64A5,5,0,0,1,6,11.57a.06.06,0,0,1,.08,0,0,0,0,0,1,0,.07,4.88,4.88,0,0,0-.4,1.24,2.05,2.05,0,0,0-.06.53,3.29,3.29,0,0,0,.16.9,3.85,3.85,0,0,0,.27.88,9.31,9.31,0,0,0,.65,1.21,3.56,3.56,0,0,1,.55,1.31.06.06,0,0,1,0,.06Zm-1-7.84a3.85,3.85,0,0,0-1.43,1.93c-.25.87-.26,2.32.53,2.87,0,0,0,0,0,0a5.11,5.11,0,0,0,.72,1.47,10.71,10.71,0,0,0,1,1.31,3.56,3.56,0,0,0-.5-1.09A9.36,9.36,0,0,1,6,15.23a4.27,4.27,0,0,1-.29-.9,3.84,3.84,0,0,1-.15-.92,2,2,0,0,1,.06-.57,3.23,3.23,0,0,1,.16-.63,3.67,3.67,0,0,0-.45,1.24s0,.05,0,.05a.06.06,0,0,1-.06,0A3.08,3.08,0,0,1,5,12.58,3.1,3.1,0,0,1,6,10.32,4.1,4.1,0,0,1,6.3,9.93Z"/><path class="cls-3" d="M12.83,15.58c-.08-.1-.17-.11-.34-.06a7.23,7.23,0,0,1-1.73.25c-.36,0-.92-.09-1.2.19a1.74,1.74,0,0,0-.55.87.72.72,0,0,0,.25-.24c.61-.47,1.55-.26,2.26-.28a2.21,2.21,0,0,0,1.13-.25C12.74,16,13,15.76,12.83,15.58Z"/><path class="cls-3" d="M13.83,21.84c-.26-.11-.62-.29-.7-.59a1.35,1.35,0,0,1,0-.49.4.4,0,0,0-.11.12c0,.2-.17.5-.1.7a.94.94,0,0,0,.63.52c.28.11.65.31,1,.16a3.85,3.85,0,0,0,.9-.58l0,0A1.66,1.66,0,0,1,13.83,21.84Z"/><path class="cls-3" d="M11.6,18a.55.55,0,0,1-.55.55.55.55,0,1,1,0-1.1A.55.55,0,0,1,11.6,18Z"/><path class="cls-2" d="M11.11,17.82a.21.21,0,1,1-.41,0,.2.2,0,0,1,.21-.2A.2.2,0,0,1,11.11,17.82Z"/><path class="cls-3" d="M18.63,18a.55.55,0,1,1-.55-.55A.55.55,0,0,1,18.63,18Z"/><path class="cls-2" d="M18.15,17.82a.22.22,0,0,1-.21.21.21.21,0,0,1-.2-.21.2.2,0,0,1,.2-.2A.21.21,0,0,1,18.15,17.82Z"/><path class="cls-3" d="M13.17,15.57A2,2,0,0,1,13,16S13,16,13,16a.43.43,0,0,0,.15-.2,1,1,0,0,0,.07-.25S13.18,15.55,13.17,15.57Z"/><path class="cls-3" d="M13.36,15.7a1.54,1.54,0,0,1-.17.19s0,.08,0,0a.87.87,0,0,0,.17-.21S13.38,15.68,13.36,15.7Z"/><path class="cls-2" d="M15.6,19l-2.25,0a52.85,52.85,0,0,0-5.71,2.32s.41,1.53.79,2.5,3,2.85,4.89,3.22h2.24c1.91-.35,4.54-2.2,4.92-3.17s.81-2.49.81-2.49A50.2,50.2,0,0,0,15.6,19Z"/><path class="cls-3" d="M15.56,27.07H13.32a8.75,8.75,0,0,1-3.05-1.39,5.44,5.44,0,0,1-1.9-1.87c-.37-1-.78-2.49-.78-2.5a0,0,0,0,1,0-.06,51.33,51.33,0,0,1,5.72-2.33h2.29a50.29,50.29,0,0,1,5.7,2.38,0,0,0,0,1,0,.06s-.42,1.54-.8,2.5a5.35,5.35,0,0,1-1.92,1.84,8.57,8.57,0,0,1-3.05,1.37ZM7.71,21.31c.07.24.43,1.58.77,2.45s3,2.82,4.85,3.19h2.23c1.85-.35,4.49-2.17,4.87-3.14s.72-2.2.79-2.45A54.72,54.72,0,0,0,15.59,19H13.36A56,56,0,0,0,7.71,21.31Z"/><path class="cls-2" d="M19.05,20.28l3.52-3.5a8.16,8.16,0,0,0-1.28,2.62l-.73,1.51Z"/><path class="cls-3" d="M20.56,21h0L19,20.33s0,0,0,0a0,0,0,0,1,0-.05l3.52-3.5a.06.06,0,0,1,.08,0,.08.08,0,0,1,0,.08,7.71,7.71,0,0,0-1.27,2.58,0,0,0,0,1,0,0l-.73,1.52A.05.05,0,0,1,20.56,21Zm-1.41-.71,1.39.58.7-1.46a5.88,5.88,0,0,1,1-2.16Z"/><path class="cls-2" d="M10.07,20.21l-3.61-3.5a8,8,0,0,1,1.26,2.62l.79,1.56Z"/><path class="cls-3" d="M8.51,21a.07.07,0,0,1,0,0l-.79-1.56a0,0,0,0,1,0,0,8.17,8.17,0,0,0-1.24-2.59,0,0,0,0,1,0-.07,0,0,0,0,1,.07,0l3.61,3.5s0,0,0,0,0,0,0,0L8.54,21Zm-.74-1.63.77,1.5L10,20.19,6.79,17.11A6,6,0,0,1,7.77,19.32Z"/><path class="cls-2" d="M15.59,18a1.2,1.2,0,0,0-1-.67h-.31a1.2,1.2,0,0,0-1,.67L12,22.88h5Z"/><path class="cls-3" d="M17,22.94H12l0,0s0,0,0-.05L13.28,18a1.25,1.25,0,0,1,1-.7h.31a1.27,1.27,0,0,1,1,.69L17,22.87a.11.11,0,0,1,0,.05Zm-4.91-.12H16.9L15.54,18a1.11,1.11,0,0,0-.93-.62h-.3a1.11,1.11,0,0,0-.92.63Z"/><rect class="cls-2" x="12.06" y="22.02" width="4.81" height="4.43" rx="1.52" transform="translate(-9.83 38.6) rotate(-89.76)"/><path class="cls-3" d="M15.16,26.7h-1.4a1.59,1.59,0,0,1-1.57-1.59V23.34a1.58,1.58,0,0,1,1.58-1.57h1.39a1.59,1.59,0,0,1,1.57,1.58v1.77A1.57,1.57,0,0,1,15.16,26.7Zm-1.38-4.81a1.47,1.47,0,0,0-1.47,1.45v1.77a1.48,1.48,0,0,0,1.46,1.48h1.39v0a1.46,1.46,0,0,0,1.46-1.46V23.36a1.49,1.49,0,0,0-1.46-1.47Z"/><rect class="cls-2" x="11.75" y="21.42" width="5.44" height="5" rx="1.72" transform="translate(-9.53 38.27) rotate(-89.71)"/><path class="cls-3" d="M15.25,26.71H13.67a1.79,1.79,0,0,1-1.77-1.78v-2a1.78,1.78,0,0,1,1.78-1.76h1.57a1.71,1.71,0,0,1,1.25.52A1.75,1.75,0,0,1,17,22.94v2A1.79,1.79,0,0,1,15.25,26.71Zm-1.56-5.45A1.66,1.66,0,0,0,12,22.92v2a1.65,1.65,0,0,0,1.65,1.66h1.57v0a1.67,1.67,0,0,0,1.66-1.65v-2a1.59,1.59,0,0,0-.48-1.18,1.66,1.66,0,0,0-1.17-.49Z"/><rect class="cls-2" x="12.06" y="22.02" width="4.81" height="4.43" rx="1.52" transform="translate(-9.83 38.6) rotate(-89.76)"/><path class="cls-3" d="M15.15,26.7H13.76a1.59,1.59,0,0,1-1.57-1.59V23.34a1.58,1.58,0,0,1,1.57-1.57h1.4a1.59,1.59,0,0,1,1.57,1.58v1.77A1.57,1.57,0,0,1,15.15,26.7Zm-1.37-4.81a1.46,1.46,0,0,0-1.47,1.45v1.77a1.48,1.48,0,0,0,1.46,1.48h1.39v0a1.47,1.47,0,0,0,1.47-1.46V23.36a1.49,1.49,0,0,0-1.46-1.47Z"/><path class="cls-2" d="M8,23.61l-.85-1.79.85-1,0,0h0a.66.66,0,0,1,.22-.15c.75-.34,1.92.66,2.62,2.22s.66,3.11-.08,3.44a13.15,13.15,0,0,1-1.46.15l-.8-1.68a6.56,6.56,0,0,1-.36-.7C8.13,23.92,8.07,23.76,8,23.61Z"/><path class="cls-3" d="M9.36,26.5a.05.05,0,0,1,0,0l-.8-1.68a6.47,6.47,0,0,1-.36-.69A4.17,4.17,0,0,1,8,23.63l-.85-1.79a0,0,0,0,1,0-.06l.85-1s0,0,0,0v0H8a.65.65,0,0,1,.23-.15.73.73,0,0,1,.33-.08c.78,0,1.75,1,2.36,2.33a5.42,5.42,0,0,1,.51,2.21c0,.67-.24,1.13-.62,1.3a10.76,10.76,0,0,1-1.48.15ZM7.23,21.83l.84,1.76c.06.17.12.32.18.46a5.7,5.7,0,0,0,.36.69l.79,1.65a12.15,12.15,0,0,0,1.39-.14c.34-.15.54-.58.55-1.21a5.16,5.16,0,0,0-.49-2.15c-.59-1.31-1.54-2.26-2.26-2.26a.72.72,0,0,0-.29.06.66.66,0,0,0-.2.14h0s0,0,0,0h0Z"/><path class="cls-2" d="M7.5,23.77,6.65,22l.85-1,0,0h0a.69.69,0,0,1,.22-.16c.74-.33,1.92.67,2.62,2.23s.66,3.1-.08,3.44c-.15.06-1.46.15-1.46.15l-.8-1.69a5.58,5.58,0,0,1-.36-.69C7.62,24.08,7.56,23.92,7.5,23.77Z"/><path class="cls-3" d="M8.85,26.66a.05.05,0,0,1,0,0L8,25a6.7,6.7,0,0,1-.37-.7c-.06-.14-.12-.29-.18-.46L6.6,22s0-.05,0-.06l.86-1,0,0h0a.73.73,0,0,1,.23-.16.72.72,0,0,1,.33-.07c.78,0,1.75,1,2.36,2.33A5.38,5.38,0,0,1,11,25.2c0,.68-.24,1.14-.62,1.31a12.58,12.58,0,0,1-1.48.15ZM6.72,22l.83,1.75.19.47a4.94,4.94,0,0,0,.36.68l.78,1.66c.51,0,1.31-.1,1.4-.14.34-.16.54-.58.55-1.21A5.2,5.2,0,0,0,10.34,23c-.59-1.3-1.54-2.25-2.26-2.25a.93.93,0,0,0-.29.05.87.87,0,0,0-.2.15h0l0,0v0Z"/><path class="cls-2" d="M6.79,24.7C7.37,26,8.35,26.84,9,26.56S9.63,25,9,23.69s-1.56-2.14-2.19-1.86S6.2,23.39,6.79,24.7Z"/><path class="cls-3" d="M8.72,26.68h0c-.66,0-1.47-.81-2-1.95a4.6,4.6,0,0,1-.42-1.85c0-.57.2-1,.52-1.1a.68.68,0,0,1,.29-.06c.65,0,1.46.8,2,2a4.55,4.55,0,0,1,.42,1.84A1.16,1.16,0,0,1,9,26.62.67.67,0,0,1,8.72,26.68Zm-1.6-4.85a.6.6,0,0,0-.24.05c-.28.12-.44.48-.46,1a4.42,4.42,0,0,0,.42,1.8c.49,1.09,1.28,1.88,1.88,1.88h0a.59.59,0,0,0,.23,0c.28-.12.44-.48.46-1A4.42,4.42,0,0,0,9,23.71C8.5,22.62,7.71,21.83,7.12,21.83Z"/><path class="cls-2" d="M20.91,23.67l.87-1.79-.84-1,0,0h0a.73.73,0,0,0-.22-.16c-.74-.34-1.92.65-2.64,2.21s-.69,3.09,0,3.44c.15.06,1.46.16,1.46.16l.81-1.68a5.6,5.6,0,0,0,.37-.69C20.79,24,20.85,23.82,20.91,23.67Z"/><path class="cls-3" d="M19.54,26.55h0a12.62,12.62,0,0,1-1.48-.16,1.37,1.37,0,0,1-.61-1.32,5.47,5.47,0,0,1,.53-2.2c.62-1.36,1.6-2.3,2.37-2.3a.81.81,0,0,1,.35.07.82.82,0,0,1,.22.16h0v0l0,0h0l.84,1s0,0,0,.06L21,23.69c-.06.17-.12.32-.18.46a6.8,6.8,0,0,1-.38.7l-.81,1.67A.05.05,0,0,1,19.54,26.55Zm.81-5.87c-.72,0-1.67.94-2.27,2.24a5.2,5.2,0,0,0-.51,2.15c0,.63.2,1.06.54,1.21a11,11,0,0,0,1.39.16l.8-1.64a5.8,5.8,0,0,0,.37-.69l.19-.46.85-1.76-.83-1,0,0h0a1,1,0,0,0-.2-.15A.73.73,0,0,0,20.35,20.68Z"/><path class="cls-2" d="M21.42,23.83l.87-1.78-.84-1,0,0,0,0h0a.89.89,0,0,0-.22-.16c-.74-.34-1.92.65-2.64,2.21s-.69,3.1.05,3.44c.15.06,1.46.16,1.46.16L20.86,25a5.6,5.6,0,0,0,.37-.69A4.47,4.47,0,0,0,21.42,23.83Z"/><path class="cls-3" d="M20.05,26.71h0a12.69,12.69,0,0,1-1.47-.16A1.37,1.37,0,0,1,18,25.23a5.3,5.3,0,0,1,.53-2.2c.62-1.35,1.6-2.3,2.37-2.3a.77.77,0,0,1,.34.07.73.73,0,0,1,.23.16h0v0l0,0h0l.84,1a0,0,0,0,1,0,.06l-.87,1.79a4.89,4.89,0,0,1-.19.46,5.8,5.8,0,0,1-.37.69l-.81,1.67A.05.05,0,0,1,20.05,26.71Zm.81-5.87c-.72,0-1.67.95-2.27,2.24a5.2,5.2,0,0,0-.51,2.15c0,.63.2,1.06.54,1.21A11,11,0,0,0,20,26.6l.8-1.64a5.8,5.8,0,0,0,.37-.69l.19-.46.85-1.76-.83-1s0,0,0,0h0a.66.66,0,0,0-.2-.14A.6.6,0,0,0,20.86,20.84Z"/><path class="cls-2" d="M22.13,24.77c-.6,1.3-1.59,2.13-2.21,1.84s-.64-1.57,0-2.87,1.59-2.13,2.21-1.84S22.73,23.47,22.13,24.77Z"/><path class="cls-3" d="M20.19,26.73a.68.68,0,0,1-.29-.06,1.16,1.16,0,0,1-.51-1.11,4.4,4.4,0,0,1,.44-1.84c.52-1.14,1.34-1.94,2-1.94a.72.72,0,0,1,.29.06c.65.3.68,1.63.07,3C21.66,25.93,20.84,26.73,20.19,26.73Zm1.63-4.83c-.6,0-1.39.78-1.89,1.86a4.4,4.4,0,0,0-.43,1.8c0,.52.17.88.45,1a.47.47,0,0,0,.24.05c.6,0,1.39-.78,1.89-1.86.58-1.27.57-2.53,0-2.8A.47.47,0,0,0,21.82,21.9Z"/><path class="cls-3" d="M16.29,16.06a2.24,2.24,0,0,0,1.14.25c.71,0,1.64-.19,2.25.28a.72.72,0,0,0,.25.24,1.61,1.61,0,0,0-.55-.87c-.28-.28-.83-.18-1.19-.19a7.16,7.16,0,0,1-1.73-.25c-.18,0-.26,0-.35.06S16.21,16,16.29,16.06Z"/><path class="cls-3" d="M15.77,15.57A2,2,0,0,0,16,16s0,.09,0,.05a.5.5,0,0,1-.15-.2.71.71,0,0,1-.06-.25S15.77,15.55,15.77,15.57Z"/><path class="cls-3" d="M15.58,15.7l.17.19s0,.08,0,0a.87.87,0,0,1-.17-.21S15.56,15.68,15.58,15.7Z"/><path class="cls-4" d="M16,25.87a.07.07,0,0,1-.07.06H13.07a.07.07,0,0,1-.07-.06h0a.07.07,0,0,1,.07-.07h2.86a.07.07,0,0,1,.07.07Z"/><path class="cls-4" d="M16,25a.07.07,0,0,1-.07.07H13.07A.07.07,0,0,1,13,25h0a.07.07,0,0,1,.07-.06h2.86A.07.07,0,0,1,16,25Z"/><path class="cls-4" d="M16,24.2a.07.07,0,0,1-.07.06H13.07A.07.07,0,0,1,13,24.2h0a.07.07,0,0,1,.07-.07h2.86a.07.07,0,0,1,.07.07Z"/><path class="cls-4" d="M16,23.36s0,.06-.07.06H13.07s-.07,0-.07-.06h0s0-.06.07-.06h2.86s.07,0,.07.06Z"/><path class="cls-4" d="M16,22.52a.07.07,0,0,1-.07.07H13.07a.07.07,0,0,1-.07-.07h0a.07.07,0,0,1,.07-.06h2.86a.07.07,0,0,1,.07.06Z"/></g></g></svg>