<svg xmlns="http://www.w3.org/2000/svg" viewBox="0 0 29.56 29.56"><defs><style>.cls-1{fill:#9c5973;}.cls-2{fill:#fff;}.cls-3{fill:#a5001d;}</style></defs><g id="Layer_2" data-name="Layer 2"><g id="Layer_1-2" data-name="Layer 1"><path class="cls-1" d="M29.56,14.78A14.78,14.78,0,1,1,14.78,0,14.78,14.78,0,0,1,29.56,14.78Z"/><path class="cls-2" d="M6.37,13.71a2.6,2.6,0,0,0-.46,1.46c0,.64.5,1.15.6,1.79a3.79,3.79,0,0,0,.39,1.7,2.27,2.27,0,0,0,.95.72H8a12.69,12.69,0,0,0-.1-5.46s-.35-.81-.8-.76A1.35,1.35,0,0,0,6.37,13.71Z"/><path class="cls-3" d="M7.88,19.44h0a2.34,2.34,0,0,1-1-.75A2.39,2.39,0,0,1,6.5,17.4a3.29,3.29,0,0,0,0-.44,3.15,3.15,0,0,0-.29-.83,2.87,2.87,0,0,1-.31-.95,2.68,2.68,0,0,1,.47-1.5,1.42,1.42,0,0,1,.81-.59c.48-.05.83.76.85.8a13.21,13.21,0,0,1,.12,5.48.12.12,0,0,1-.06.06Zm0-.11H8a13.37,13.37,0,0,0-.14-5.39s-.32-.76-.73-.72a1.29,1.29,0,0,0-.72.53A2.55,2.55,0,0,0,6,15.17a2.78,2.78,0,0,0,.3.91,3.34,3.34,0,0,1,.31.87c0,.14,0,.29,0,.44A2.4,2.4,0,0,0,7,18.62,2.18,2.18,0,0,0,7.87,19.33Z"/><path class="cls-3" d="M7.7,18.4a1.16,1.16,0,0,0,.16-.68A2.24,2.24,0,0,0,7.57,17c-.09-.13-.18-.26-.26-.4s.07-.58.11-.78a2.71,2.71,0,0,1,.13-.7.93.93,0,0,0,0-.44.57.57,0,0,0-.51-.53.87.87,0,0,0-.68.38.67.67,0,0,0-.11.69c.1.18.26.35.37.53a.67.67,0,0,1,.1.23,1.49,1.49,0,0,0-.08-.4,1.53,1.53,0,0,1-.34-.67c0-.33.3-.55.58-.62a.51.51,0,0,1,.51.3c.14.24,0,.57-.08.81s-.06.57-.13.85a.68.68,0,0,0,.08.63,4.33,4.33,0,0,1,.41.69h0a2.8,2.8,0,0,1-.33-.24A4,4,0,0,1,7,16.88a.86.86,0,0,0,.06.23c.07.09.13.18.2.26a1.94,1.94,0,0,0,.27.23.91.91,0,0,0,.24.16,1.21,1.21,0,0,1,0,.38S7.72,18.3,7.7,18.4Z"/><path class="cls-2" d="M22.88,13.71a2.6,2.6,0,0,1,.46,1.46c-.05.64-.51,1.15-.6,1.79a3.67,3.67,0,0,1-.4,1.7,2.21,2.21,0,0,1-.95.72h-.17a12.69,12.69,0,0,1,.1-5.46s.34-.81.79-.76A1.34,1.34,0,0,1,22.88,13.71Z"/><path class="cls-3" d="M21.37,19.44h-.16a.13.13,0,0,1-.07-.06,13.43,13.43,0,0,1,.13-5.48s.36-.85.85-.8a1.42,1.42,0,0,1,.8.58,2.67,2.67,0,0,1,.48,1.51,2.87,2.87,0,0,1-.31.95,2.83,2.83,0,0,0-.29.83,3.29,3.29,0,0,0-.05.44,2.48,2.48,0,0,1-.36,1.29,2.34,2.34,0,0,1-1,.75h-.05Zm-.13-.12h.14a2.18,2.18,0,0,0,.92-.71,2.4,2.4,0,0,0,.33-1.23c0-.15,0-.3.05-.44a3.73,3.73,0,0,1,.3-.87,2.81,2.81,0,0,0,.31-.91,2.69,2.69,0,0,0-.46-1.44,1.31,1.31,0,0,0-.72-.52c-.41,0-.73.71-.73.72A13.18,13.18,0,0,0,21.24,19.32Z"/><path class="cls-3" d="M21.55,18.4a1.17,1.17,0,0,1-.17-.68,2.5,2.5,0,0,1,.3-.74c.08-.13.17-.26.25-.4s-.06-.58-.1-.78a2.71,2.71,0,0,0-.13-.7.93.93,0,0,1,0-.44.56.56,0,0,1,.51-.53.87.87,0,0,1,.68.38.64.64,0,0,1,.1.69c-.09.18-.25.35-.36.53a.67.67,0,0,0-.1.23,1.49,1.49,0,0,1,.08-.4,1.53,1.53,0,0,0,.34-.67c0-.33-.3-.55-.58-.62a.51.51,0,0,0-.51.3c-.14.24,0,.57.07.81s.07.57.14.85a.68.68,0,0,1-.08.63,4.33,4.33,0,0,0-.41.69h0a4,4,0,0,0,.33-.24,4,4,0,0,0,.39-.43l-.06.23-.21.26a1.86,1.86,0,0,1-.26.23.91.91,0,0,1-.24.16,1.21,1.21,0,0,0,0,.38A1.54,1.54,0,0,0,21.55,18.4Z"/><path class="cls-2" d="M22.65,12.87S22.36,8.74,16,7.3h-3c-6.32,1.44-6.62,5.57-6.62,5.57s1.48,3.35,1.38,5.3.21,4.12,4.76,6.42a3.59,3.59,0,0,0,2,.41,3.57,3.57,0,0,0,2-.41c4.55-2.3,4.86-4.47,4.76-6.42S22.65,12.87,22.65,12.87Z"/><path class="cls-3" d="M14.8,25.06h-.51a3.58,3.58,0,0,1-1.74-.42C8,22.31,7.67,20.08,7.77,18.17s-1.36-5.24-1.38-5.28a0,0,0,0,1,0,0s.37-4.2,6.66-5.62h3a9.52,9.52,0,0,1,5.72,3.34,4.88,4.88,0,0,1,.95,2.28s0,0,0,0-1.47,3.37-1.37,5.28-.19,4.14-4.79,6.47A3.58,3.58,0,0,1,14.8,25.06Zm-.26-.12h.26a3.44,3.44,0,0,0,1.68-.41c4.55-2.3,4.83-4.49,4.73-6.37s1.28-5.07,1.38-5.31S22.05,8.73,16,7.36h-3a9.39,9.39,0,0,0-5.64,3.3,4.83,4.83,0,0,0-.93,2.2c.1.24,1.47,3.44,1.38,5.31s.19,4.07,4.73,6.37a3.48,3.48,0,0,0,1.68.41Z"/><path class="cls-3" d="M7.7,15.23s-.06,0,0,0,0,.15.06.23,0,0,0,0S7.72,15.3,7.7,15.23Z"/><path class="cls-3" d="M24.85,8.58a7,7,0,0,0-.34-1.29,10.78,10.78,0,0,0-2.3-3.15,1.52,1.52,0,0,0,.28-.09c.22-.08.52-.21.53-.48a0,0,0,0,0,0,0c-.79.12-1.35-.5-1.93-.91A12.21,12.21,0,0,0,19,1.43,9.56,9.56,0,0,0,14.39.56,11.89,11.89,0,0,0,9.93,1.61,6.25,6.25,0,0,0,8.28,2.8a4.72,4.72,0,0,0-.56.71l-.14.22A9.56,9.56,0,0,0,6.37,5.06,7.9,7.9,0,0,0,5.26,7.12a8.09,8.09,0,0,0-.49,2.27A5,5,0,0,0,5,11.28a6.54,6.54,0,0,0,.82,1.57,13.68,13.68,0,0,1,1.53,3c.15.46.29.94.4,1.42a2.9,2.9,0,0,0,.18.27s.15-2.08.2-2.71c-.1-.54-.3-1-.41-1.6a4.83,4.83,0,0,1,.43-3A.64.64,0,0,1,8.25,10l.05-.08a.05.05,0,0,1,0,0l0,0a2.34,2.34,0,0,1,1.86-.63,20.37,20.37,0,0,1,2.2.29l.39.38a7.69,7.69,0,0,0,1.52.94,7.92,7.92,0,0,0,3.25.71A4.79,4.79,0,0,0,21,10.18a2.91,2.91,0,0,1,.63,2.08,4.18,4.18,0,0,1-.08,1c-.1.55-.3,1.06-.4,1.6.05.63.18,2.73.2,2.71a1.92,1.92,0,0,0,.17-.27c.12-.48.25-1,.41-1.42a13.36,13.36,0,0,1,1.36-2.76l.2-.19a2.73,2.73,0,0,0,.73-1,4,4,0,0,0,.3-1.22l0-.06a3.41,3.41,0,0,0,.31-1A3,3,0,0,0,24.85,8.58Z"/><path class="cls-3" d="M21.35,17.62h0c-.07,0-.07,0-.2-2,0-.33,0-.63-.06-.8v0c.05-.28.14-.56.21-.83s.15-.51.2-.77a4.62,4.62,0,0,0,.07-1,2.91,2.91,0,0,0-.57-2,7.45,7.45,0,0,1-.59.48,5.13,5.13,0,0,1-2.81.86,7.89,7.89,0,0,1-3.27-.72,6.88,6.88,0,0,1-1.53-1,3.33,3.33,0,0,1-.34-.32l-.05,0-.58-.09a14.1,14.1,0,0,0-1.59-.2h-.17a2.22,2.22,0,0,0-1.65.62h0l0,0h0s0,0,0,.05l0,0a.61.61,0,0,0-.14.26h0a4.7,4.7,0,0,0-.42,3c0,.26.12.52.19.77a7.75,7.75,0,0,1,.21.83v0c0,.17,0,.47-.05.8-.14,2-.14,2-.2,2h0a3.21,3.21,0,0,1-.17-.28s0,0,0,0c-.12-.48-.25-.95-.41-1.41a13,13,0,0,0-1.52-3,6.81,6.81,0,0,1-.83-1.59,5.36,5.36,0,0,1-.18-1.91A8.36,8.36,0,0,1,5.2,7.1,7.87,7.87,0,0,1,6.33,5,10.1,10.1,0,0,1,7.54,3.69a1.93,1.93,0,0,1,.13-.21,5.29,5.29,0,0,1,.57-.72,6.17,6.17,0,0,1,1.67-1.2A12.21,12.21,0,0,1,14.38.5l.61,0a9.73,9.73,0,0,1,4,.9,12.16,12.16,0,0,1,2.12,1.21c.12.08.23.17.34.26a2.34,2.34,0,0,0,1.36.65l.19,0h0a.06.06,0,0,1,.06,0,.07.07,0,0,1,0,.06c0,.32-.38.46-.57.54l-.19.06.22.24a9.72,9.72,0,0,1,2,2.86,7.65,7.65,0,0,1,.33,1.29,3.17,3.17,0,0,1,0,1,3.29,3.29,0,0,1-.32,1.05l0,0h0a3.87,3.87,0,0,1-.3,1.23A2.77,2.77,0,0,1,23.52,13l-.19.19A12.52,12.52,0,0,0,22,15.9a13.42,13.42,0,0,0-.41,1.41s0,0,0,0a2.29,2.29,0,0,1-.18.28ZM7.76,17.28a1.17,1.17,0,0,0,.08.13c0-.33.08-1.16.12-1.75,0-.33,0-.62.06-.8a7.4,7.4,0,0,0-.21-.81c-.07-.25-.14-.51-.19-.78a4.81,4.81,0,0,1,.43-3,.74.74,0,0,1,.16-.3v0l0,0a.16.16,0,0,1,.08-.06h0a2.36,2.36,0,0,1,1.73-.64h.17a12,12,0,0,1,1.61.2l.59.09,0,0,.06.06a3.13,3.13,0,0,0,.33.31,7.08,7.08,0,0,0,1.51.94,7.79,7.79,0,0,0,3.21.7,5,5,0,0,0,2.75-.83,6.73,6.73,0,0,0,.62-.52l0,0s0,0,0,0a3,3,0,0,1,.65,2.12,4.71,4.71,0,0,1-.08,1,6.36,6.36,0,0,1-.2.78c-.07.26-.15.54-.2.81s0,.47.05.8c0,.59.1,1.42.13,1.75l.08-.13c.12-.48.25-1,.41-1.42a12.38,12.38,0,0,1,1.36-2.77h0l.2-.19a2.69,2.69,0,0,0,.71-1,3.76,3.76,0,0,0,.3-1.21v0l0,0a3.23,3.23,0,0,0,.29-2,7.45,7.45,0,0,0-.33-1.27,9.6,9.6,0,0,0-2-2.82l-.28-.31a0,0,0,0,1,0,0s0,0,0,0L22.47,4c.22-.09.46-.19.49-.4h-.17a2.41,2.41,0,0,1-1.43-.67c-.11-.09-.22-.18-.34-.26a12.22,12.22,0,0,0-2.1-1.2A9.63,9.63,0,0,0,15,.6c-.2,0-.4,0-.6,0a11.87,11.87,0,0,0-4.43,1A6,6,0,0,0,8.32,2.84a4.32,4.32,0,0,0-.55.7l-.14.21v0A9.37,9.37,0,0,0,6.42,5.1a7.92,7.92,0,0,0-1.11,2,8.39,8.39,0,0,0-.49,2.25A5.37,5.37,0,0,0,5,11.26a7,7,0,0,0,.82,1.56,13.74,13.74,0,0,1,1.53,3C7.51,16.32,7.64,16.8,7.76,17.28Z"/><path class="cls-2" d="M7.91,7.56c0,.08.09.15.15.23a3.49,3.49,0,0,0,.45.49,9,9,0,0,1-.68-1.9A5.25,5.25,0,0,1,7.9,3.71s-.05,0-.06,0A6.35,6.35,0,0,0,7.5,4.81a5.47,5.47,0,0,0,0,1.34A5.18,5.18,0,0,0,7.91,7.56Z"/><path class="cls-3" d="M8.51,8.34l0,0A4.62,4.62,0,0,1,8,7.82l-.15-.23a5.21,5.21,0,0,1-.38-1.44V6.07a4.5,4.5,0,0,1,0-1.27A4.54,4.54,0,0,1,7.7,4l.09-.24a.12.12,0,0,1,.1-.08l.06,0a.15.15,0,0,1,0,.07,5.11,5.11,0,0,0-.08,2.63,8.92,8.92,0,0,0,.68,1.89s0,.06,0,.07ZM7.74,4.18a4.3,4.3,0,0,0-.18.64,4.69,4.69,0,0,0,0,1.24v.08A5.19,5.19,0,0,0,8,7.54l.14.21L8.31,8a10.15,10.15,0,0,1-.54-1.61A5,5,0,0,1,7.74,4.18Z"/><path class="cls-2" d="M19.92,9a8.63,8.63,0,0,1-1.73-.38l-.32-.12a4.38,4.38,0,0,0,2.22.88,3,3,0,0,0,1.19-.1,2.43,2.43,0,0,1-.92,1.1s0,0-.09,0l-.11.09a3.32,3.32,0,0,1-.63.22,5.46,5.46,0,0,1-2.66-.18,7.53,7.53,0,0,1-2.66-1.35,5.76,5.76,0,0,1-.69-.53,7.18,7.18,0,0,1-.82-.92l0,0a6.43,6.43,0,0,0,5.08,3.56l.33,0a5.2,5.2,0,0,1-1.4-.09,9.27,9.27,0,0,1-3.53-1.6c-.91-.63-1.69-1.68-2.8-1.93a1.06,1.06,0,0,0-1.1.44,1,1,0,0,0,0,.29c.18-.86,1.44-.09,1.77.17s.84.75,1.28,1.11a10.86,10.86,0,0,0,2.74,1.58,4.91,4.91,0,0,0,4.71-.18,3.32,3.32,0,0,0,.77-.4,2.78,2.78,0,0,0,1.11-1.53,3.2,3.2,0,0,0,.51-.29,1.94,1.94,0,0,0,.44-.63A3.72,3.72,0,0,1,19.92,9Z"/><path class="cls-3" d="M17.49,11.8a6.63,6.63,0,0,1-2.44-.51,11,11,0,0,1-2.75-1.6c-.22-.17-.43-.36-.63-.54s-.43-.39-.66-.57A2.66,2.66,0,0,0,9.76,8a.39.39,0,0,0-.43.35,0,0,0,0,1-.05,0,.05.05,0,0,1-.06,0,1.54,1.54,0,0,1,0-.3,0,0,0,0,1,0,0,1.13,1.13,0,0,1,.93-.5.85.85,0,0,1,.23,0,4.69,4.69,0,0,1,2,1.23c.28.25.58.51.87.72a9.27,9.27,0,0,0,3.51,1.59l.44.06a6.38,6.38,0,0,1-4.51-3.49.06.06,0,0,1,0-.07.06.06,0,0,1,.08,0l0,0a7.84,7.84,0,0,0,.82.91,5.29,5.29,0,0,0,.68.52,7.59,7.59,0,0,0,2.64,1.35,5.45,5.45,0,0,0,2.64.17,2.74,2.74,0,0,0,.61-.21l0,0,.09-.06a.16.16,0,0,1,.12-.05,2.24,2.24,0,0,0,.81-.95,2.88,2.88,0,0,1-1.09.08,4.71,4.71,0,0,1-2.25-.89.08.08,0,0,1,0-.08.07.07,0,0,1,.07,0l.32.12a8.35,8.35,0,0,0,1.72.37l.35,0a3.56,3.56,0,0,0,2.3-.79s0,0,.06,0,0,0,0,.07a1.77,1.77,0,0,1-.45.65,3.22,3.22,0,0,1-.5.29,2.83,2.83,0,0,1-1.12,1.54,3.59,3.59,0,0,1-.78.4A3.85,3.85,0,0,1,17.49,11.8ZM9.76,7.92a2.74,2.74,0,0,1,1.32.57c.23.18.45.38.67.58s.4.36.62.53a10.89,10.89,0,0,0,2.72,1.58,6.45,6.45,0,0,0,2.4.5A3.74,3.74,0,0,0,19.75,11h0a2.85,2.85,0,0,0,.76-.38A2.67,2.67,0,0,0,21.6,9.1l0,0a2.53,2.53,0,0,0,.51-.28,1.91,1.91,0,0,0,.31-.38,3.83,3.83,0,0,1-2.17.65h-.36a7.68,7.68,0,0,1-1.72-.38,5,5,0,0,0,1.89.64,2.75,2.75,0,0,0,1.17-.1,0,0,0,0,1,.06,0s0,0,0,.06a2.39,2.39,0,0,1-.94,1.12s0,0-.05,0,0,0,0,0l-.09.06,0,0a2.33,2.33,0,0,1-.64.23,5.35,5.35,0,0,1-2.7-.18,7.61,7.61,0,0,1-2.68-1.35,5.38,5.38,0,0,1-.68-.54A5.19,5.19,0,0,1,13,8.14a6.42,6.42,0,0,0,4.78,3l.33,0a0,0,0,0,1,.05,0,.06.06,0,0,1-.05.06,5.89,5.89,0,0,1-1.42-.09,9.26,9.26,0,0,1-3.55-1.61,10,10,0,0,1-.89-.72,4.57,4.57,0,0,0-1.89-1.21l-.21,0a1,1,0,0,0-.83.43.13.13,0,0,0,0,.06A.48.48,0,0,1,9.76,7.92Z"/><path class="cls-2" d="M21,4.8l.11.12.34.14,0,0a4.73,4.73,0,0,1-1.11-.73c-.31-.21-.6-.43-.9-.64l-.3-.22.36.31.73.56a6.21,6.21,0,0,0,.63.49A.07.07,0,0,1,21,4.8Z"/><path class="cls-3" d="M21.47,5.12h0A2.67,2.67,0,0,1,21.1,5h0L21,4.83h0s-.05,0-.07,0a4.37,4.37,0,0,1-.48-.37l-.16-.13-.39-.3-.33-.26-.37-.31a0,0,0,0,1,0-.07.05.05,0,0,1,.08,0l.31.22.35.25.54.39A4.51,4.51,0,0,0,21.52,5s0,0,0,0a.06.06,0,0,1,0,0,0,0,0,0,1,0,0A.08.08,0,0,1,21.47,5.12Z"/><path class="cls-2" d="M22.66,5.64a4.48,4.48,0,0,1,1.4,1,4.73,4.73,0,0,1,.37.4,4,4,0,0,0-1.91-1.5l-.75-.18C22.07,5.44,22.38,5.53,22.66,5.64Z"/><path class="cls-3" d="M24.43,7.06l0,0c-.11-.14-.24-.27-.37-.41a4.4,4.4,0,0,0-1.38-.94l-.43-.15a4.28,4.28,0,0,1-.46-.17.07.07,0,0,1,0-.07.05.05,0,0,1,.07,0l.48.11.28.07A4,4,0,0,1,24.48,7a0,0,0,0,1,0,.07Z"/><path class="cls-2" d="M24.35,7.12a4.91,4.91,0,0,0-.94-.88,6.3,6.3,0,0,0-1.55-.74,2.59,2.59,0,0,1-.78-.44L21,5a15.3,15.3,0,0,1-1.43-1.08c-.48-.38-.92-.8-1.4-1.18l-.36-.29-.53-.35a6.22,6.22,0,0,0-4.65-.93A5.34,5.34,0,0,0,9.15,3.46a3.88,3.88,0,0,0-.56,1.85,2.86,2.86,0,0,0,.12,1c0-.21.06-.43.08-.58a2.07,2.07,0,0,1,0-.22,3.52,3.52,0,0,1,.18-1,3.47,3.47,0,0,1,1-1.71,5.36,5.36,0,0,1,4.13-1.19,8.24,8.24,0,0,1,3.73,1.69A14.54,14.54,0,0,0,20.23,4.9a12.54,12.54,0,0,1-3.33-1c-.54-.25-1.07-.53-1.6-.8s-1.07-.43-1.6-.67c0,0-.11.07-.08.09,1.89,1,3.59,2.22,5.7,2.71.52.12,1.06.19,1.59.28a5,5,0,0,1,1,.32h0a6.6,6.6,0,0,1,2.4,1.56,3.42,3.42,0,0,1,.41.55,2.71,2.71,0,0,0-.09-.41C24.55,7.35,24.41,7.19,24.35,7.12Z"/><path class="cls-3" d="M24.77,8s0,0,0,0a3.65,3.65,0,0,0-.41-.54,6.73,6.73,0,0,0-2.38-1.55h0a4.81,4.81,0,0,0-1-.31l-.44-.07L19.3,5.29A15.79,15.79,0,0,1,15.1,3.4c-.49-.28-1-.57-1.5-.83a.08.08,0,0,1,0-.09.15.15,0,0,1,.13-.11h0c.22.1.44.18.66.27a7.1,7.1,0,0,1,.95.4l.33.17c.41.21.84.43,1.26.62a12.58,12.58,0,0,0,2.94.94,12.9,12.9,0,0,1-1.38-.94c-.21-.17-.42-.32-.63-.47a8.13,8.13,0,0,0-3.69-1.68,4.58,4.58,0,0,0-.64,0,5.14,5.14,0,0,0-3.45,1.21,3.54,3.54,0,0,0-1,1.69,3.71,3.71,0,0,0-.18,1,1.7,1.7,0,0,1,0,.22.69.69,0,0,1,0,.13c0,.14,0,.29-.05.45a0,0,0,0,1,0,.05.05.05,0,0,1-.06,0A3,3,0,0,1,8.53,5.3,4.11,4.11,0,0,1,9.1,3.43a5.36,5.36,0,0,1,3.5-2.3,6.31,6.31,0,0,1,4.69.93l.53.35.31.25.06,0,.72.61c.22.19.44.39.67.57l.28.23A13.64,13.64,0,0,0,21,5l.06,0,0,0h0a2.35,2.35,0,0,0,.76.42l.21.09a5.63,5.63,0,0,1,1.35.66,5,5,0,0,1,.95.89l0,0c.07.09.19.22.3.38h0a2.07,2.07,0,0,1,.1.43.06.06,0,0,1,0,.06ZM22,5.77h0A6.68,6.68,0,0,1,24.4,7.35a4,4,0,0,1,.26.32l0-.12-.29-.35,0,0a4.79,4.79,0,0,0-.94-.87,5.44,5.44,0,0,0-1.32-.66l-.21-.08a2.72,2.72,0,0,1-.8-.44l0,0-.07,0a10.87,10.87,0,0,1-1.16-.86L19.51,4c-.23-.18-.46-.38-.68-.57l-.71-.61-.06,0-.31-.24-.53-.36a6.16,6.16,0,0,0-4.6-.91A5.31,5.31,0,0,0,9.2,3.49a4,4,0,0,0-.56,1.82,3.32,3.32,0,0,0,0,.72.77.77,0,0,0,0-.15.59.59,0,0,0,0-.13c0-.07,0-.14,0-.22a3.86,3.86,0,0,1,.18-1,3.59,3.59,0,0,1,1-1.74,5.28,5.28,0,0,1,3.53-1.25,4.63,4.63,0,0,1,.65,0,8.35,8.35,0,0,1,3.75,1.71c.21.14.41.3.63.47a9.67,9.67,0,0,0,1.7,1.1.06.06,0,0,1,0,.07.08.08,0,0,1-.06,0,13,13,0,0,1-3.34-1c-.43-.2-.86-.42-1.27-.63l-.33-.17a9.46,9.46,0,0,0-.94-.4L13.7,2.5c.49.25,1,.53,1.45.8a15.59,15.59,0,0,0,4.18,1.87c.38.09.77.15,1.15.21l.44.08A4.8,4.8,0,0,1,22,5.77Z"/><path class="cls-2" d="M23.59,9A5.84,5.84,0,0,1,24,11a4.13,4.13,0,0,1,0,.5,3.88,3.88,0,0,1-.87,2,4.59,4.59,0,0,0,.17-1,4.27,4.27,0,0,0-.08-.87c0,.41-.13.81-.2,1.2a2,2,0,0,1-.24.73,4.46,4.46,0,0,1-.32.74c-.12.21-.3.45-.45.69a1.94,1.94,0,0,0,0,.24A1.73,1.73,0,0,0,22,16a.5.5,0,0,0,.05-.07,10.62,10.62,0,0,1,.86-1.72C24.39,13,24.91,10.44,23.59,9Z"/><path class="cls-3" d="M22,16h0a0,0,0,0,1-.05,0,1.35,1.35,0,0,1,0-.6.41.41,0,0,0,0-.11c0-.08,0-.15,0-.23a0,0,0,0,0,0,0l.21-.32c.09-.13.17-.25.24-.37a3.73,3.73,0,0,0,.31-.73h0a1.81,1.81,0,0,0,.23-.7l.06-.32c.06-.29.11-.59.14-.88,0,0,0-.06.06-.06h0s0,0,.06.05l0,.22a3.67,3.67,0,0,1,0,.66,4.72,4.72,0,0,1-.11.71,3.57,3.57,0,0,0,.69-1.77,4.1,4.1,0,0,0,0-.5,6,6,0,0,0-.37-2,.06.06,0,0,1,0-.07.08.08,0,0,1,.08,0,3.19,3.19,0,0,1,.74,2.5,3.89,3.89,0,0,1-1.47,2.73c-.11.22-.23.42-.35.62a4.65,4.65,0,0,0-.51,1.08s0,0-.05.09S22,16,22,16Zm.07-1a1.64,1.64,0,0,0,0,.22.41.41,0,0,0,0,.11,1.62,1.62,0,0,0,0,.38,5.46,5.46,0,0,1,.49-1c.12-.21.25-.41.35-.63l0,0a3.84,3.84,0,0,0,1.44-2.66,3.2,3.2,0,0,0-.53-2.19A5.49,5.49,0,0,1,24,11a2.86,2.86,0,0,1,0,.51,3.82,3.82,0,0,1-.87,2.05.05.05,0,0,1-.07,0,.05.05,0,0,1,0-.07,5,5,0,0,0,.16-.95,2.36,2.36,0,0,0,0-.46l-.09.49-.06.31a1.89,1.89,0,0,1-.24.75,5.5,5.5,0,0,1-.32.74c-.07.12-.16.24-.25.38Z"/><path class="cls-2" d="M6.71,14.42a10.93,10.93,0,0,1-.65-1.21,4.83,4.83,0,0,1-.28-.89,3.62,3.62,0,0,1-.16-.92,2,2,0,0,1,.07-.54,4.74,4.74,0,0,1,.4-1.26,4.79,4.79,0,0,0-.81,1.84,2.85,2.85,0,0,1-.18-.86A3.06,3.06,0,0,1,6,8.36a5.23,5.23,0,0,1,.65-.68A3.64,3.64,0,0,0,4.82,9.85c-.25.83-.29,2.35.55,2.92a5.14,5.14,0,0,0,.72,1.49,10.1,10.1,0,0,0,1.16,1.45A3.26,3.26,0,0,0,6.71,14.42Z"/><path class="cls-3" d="M7.25,15.76h0a9.66,9.66,0,0,1-1.16-1.46,5,5,0,0,1-.73-1.48c-.82-.59-.82-2.09-.56-3a3.72,3.72,0,0,1,1.86-2.2.06.06,0,0,1,.07,0,.06.06,0,0,1,0,.08A5,5,0,0,0,6,8.39a3.05,3.05,0,0,0-.88,2.19,2.78,2.78,0,0,0,.12.64,4.88,4.88,0,0,1,.78-1.65.06.06,0,0,1,.07,0,.07.07,0,0,1,0,.08,4.44,4.44,0,0,0-.41,1.23,2.17,2.17,0,0,0-.06.54,3.29,3.29,0,0,0,.16.9,3.85,3.85,0,0,0,.27.88,9.31,9.31,0,0,0,.65,1.21,3.49,3.49,0,0,1,.55,1.31.07.07,0,0,1,0,.06Zm-1-7.84A3.91,3.91,0,0,0,4.87,9.86c-.25.86-.26,2.32.53,2.86a.05.05,0,0,1,0,0,4.94,4.94,0,0,0,.72,1.46,10,10,0,0,0,1,1.32,3.85,3.85,0,0,0-.51-1.09A10,10,0,0,1,6,13.23a4.27,4.27,0,0,1-.29-.9,3.84,3.84,0,0,1-.15-.93,1.88,1.88,0,0,1,.06-.56,3.53,3.53,0,0,1,.16-.64,3.79,3.79,0,0,0-.45,1.25s0,.05,0,.05a.05.05,0,0,1-.06,0A3.09,3.09,0,0,1,5,10.58,3.1,3.1,0,0,1,6,8.32C6.05,8.19,6.17,8.06,6.3,7.92Z"/><path class="cls-3" d="M13.83,19.84c-.26-.11-.62-.29-.7-.59a1.35,1.35,0,0,1,0-.49s-.11.09-.11.12c0,.2-.17.5-.1.7a1,1,0,0,0,.63.52c.28.11.65.3,1,.15a3.55,3.55,0,0,0,.9-.58s0,0,0,0A1.68,1.68,0,0,1,13.83,19.84Z"/><path class="cls-3" d="M11.6,16a.55.55,0,0,1-.55.55A.55.55,0,0,1,10.5,16a.54.54,0,0,1,.55-.55A.55.55,0,0,1,11.6,16Z"/><path class="cls-2" d="M11.11,15.82a.2.2,0,0,1-.2.2.21.21,0,0,1-.21-.2.22.22,0,0,1,.21-.21A.21.21,0,0,1,11.11,15.82Z"/><path class="cls-3" d="M18.63,16a.55.55,0,1,1-1.1,0,.55.55,0,1,1,1.1,0Z"/><path class="cls-2" d="M18.15,15.82a.21.21,0,0,1-.21.2.2.2,0,0,1-.2-.2.21.21,0,0,1,.2-.21A.22.22,0,0,1,18.15,15.82Z"/><path class="cls-2" d="M15.68,9H13.34S6.8,8.37,7.49,13.77c.34,2.7.59,8.12.82,8.73.38,1,3,2.89,4.9,3.27h2.6c1.9-.38,4.52-2.28,4.9-3.27.24-.61.48-6,.82-8.73C22.22,8.37,15.68,9,15.68,9Zm-5.51,10.5c-1.75.39-2.32-4.23-.94-5.89s3.37-.25,3.37-.25C14.16,14.66,11.91,19.14,10.17,19.53Zm8.69,0c-1.75-.39-4-4.87-2.44-6.14,0,0,2-1.41,3.37.25S20.6,19.92,18.86,19.53Z"/><path class="cls-3" d="M15.81,25.83h-2.6a8.77,8.77,0,0,1-3.05-1.42,5.42,5.42,0,0,1-1.91-1.89,34.52,34.52,0,0,1-.39-4c-.13-1.66-.27-3.53-.43-4.79a4,4,0,0,1,.81-3.27C9.43,9.15,11.53,9,12.68,9c.4,0,.65,0,.66,0h2.34s.26,0,.67,0c1.14,0,3.24.2,4.43,1.55a4,4,0,0,1,.81,3.27c-.16,1.26-.3,3.13-.42,4.79a36.07,36.07,0,0,1-.4,4,5.42,5.42,0,0,1-1.91,1.89,8.82,8.82,0,0,1-3,1.42ZM12.68,9.06c-1.13,0-3.2.2-4.35,1.52a3.86,3.86,0,0,0-.78,3.18c.16,1.26.29,3.13.42,4.79a36,36,0,0,0,.39,3.93c.38,1,3,2.87,4.86,3.23H15.8c1.86-.37,4.48-2.24,4.86-3.23a36,36,0,0,0,.39-3.93c.13-1.66.27-3.53.43-4.79a3.9,3.9,0,0,0-.78-3.18c-1.16-1.32-3.23-1.52-4.35-1.52a6.37,6.37,0,0,0-.66,0H13.34S13.07,9.06,12.68,9.06Zm6.38,10.55-.22,0c-1.18-.26-2.49-2.28-2.88-3.9a2.28,2.28,0,0,1,.43-2.35,3.37,3.37,0,0,1,1.75-.57,2.14,2.14,0,0,1,1.7.83c1,1.17,1,3.73.35,5.08C19.9,19.29,19.51,19.61,19.06,19.61Zm-.92-6.73a3.3,3.3,0,0,0-1.68.55c-.5.4-.63,1.2-.39,2.24.42,1.76,1.76,3.57,2.8,3.81l.19,0c.51,0,.84-.47,1-.87.62-1.32.61-3.82-.33-4.95A2,2,0,0,0,18.14,12.88ZM10,19.61c-.45,0-.84-.32-1.12-.93-.64-1.35-.62-3.91.34-5.08a2.15,2.15,0,0,1,1.71-.83,3.35,3.35,0,0,1,1.74.57,2.26,2.26,0,0,1,.43,2.35c-.39,1.62-1.7,3.64-2.88,3.9Zm.93-6.73a2,2,0,0,0-1.62.8c-.94,1.13-.95,3.63-.33,4.95.18.4.51.87,1,.87l.19,0c1-.24,2.38-2.05,2.8-3.81.24-1,.11-1.84-.39-2.24A3.29,3.29,0,0,0,10.89,12.88Z"/><path class="cls-3" d="M12.59,13.34s-.05,0-.06,0a2,2,0,0,1-.79.36,8.74,8.74,0,0,1-.87.14h-.09a4,4,0,0,0-.85.19l-.26.12a1.48,1.48,0,0,0-.36.39A3.58,3.58,0,0,0,9.1,15c0,.11,0,.23,0,.34v0a2.2,2.2,0,0,1,1.17-.79c.78-.2,1.59-.22,2.37-.42l0,0A.65.65,0,0,0,12.59,13.34Z"/><path class="cls-3" d="M16.4,13.34s.05,0,.06,0a1.84,1.84,0,0,0,.79.36,8.3,8.3,0,0,0,.87.14h.09a4,4,0,0,1,.85.19l.26.12a1.48,1.48,0,0,1,.36.39,2.38,2.38,0,0,1,.2.39c0,.11,0,.23,0,.34v0a2.24,2.24,0,0,0-1.17-.79c-.78-.2-1.59-.22-2.37-.42l0,0A.65.65,0,0,1,16.4,13.34Z"/><path class="cls-2" d="M10,19.84c-.38,0-.92-.18-1.33-1.06C8,17.34,8,14.7,9,13.46a2.34,2.34,0,0,1,1.88-.92,3.62,3.62,0,0,1,1.87.61l0,0a2.45,2.45,0,0,1,.5,2.57c-.4,1.7-1.75,3.78-3,4.07A1.24,1.24,0,0,1,10,19.84Zm.93-6.73a1.81,1.81,0,0,0-1.44.71c-.87,1-.89,3.46-.31,4.72.16.33.43.73.82.73l.14,0c1-.21,2.23-2,2.63-3.64.12-.54.26-1.53-.3-2A3.12,3.12,0,0,0,10.89,13.11Z"/><path class="cls-3" d="M10,19.9c-.39,0-1-.19-1.38-1.1-.68-1.45-.66-4.12.38-5.38a2.43,2.43,0,0,1,1.93-.93,3.66,3.66,0,0,1,1.91.62h0a2.51,2.51,0,0,1,.52,2.64c-.4,1.7-1.77,3.81-3.09,4.11A1.33,1.33,0,0,1,10,19.9Zm.93-7.3a2.32,2.32,0,0,0-1.84.89c-1,1.23-1,3.84-.37,5.26.4.85.92,1,1.28,1a1.07,1.07,0,0,0,.25,0c1.28-.28,2.62-2.34,3-4a2.38,2.38,0,0,0-.48-2.52h0A3.48,3.48,0,0,0,10.89,12.6ZM10,19.33c-.42,0-.7-.42-.87-.77-.59-1.27-.56-3.72.31-4.77a1.86,1.86,0,0,1,1.49-.73,3.06,3.06,0,0,1,1.57.51c.59.49.45,1.5.32,2.06-.4,1.67-1.69,3.46-2.66,3.68Zm.93-6.16a1.76,1.76,0,0,0-1.4.69c-.85,1-.87,3.41-.29,4.65.15.32.4.7.76.7h.13c.94-.21,2.19-2,2.58-3.6.13-.53.26-1.49-.28-1.94A2.94,2.94,0,0,0,10.89,13.17Z"/><path class="cls-2" d="M19.06,19.84a1.24,1.24,0,0,1-.27,0c-1.29-.29-2.65-2.37-3-4.07a2.45,2.45,0,0,1,.5-2.57l0,0a3.67,3.67,0,0,1,1.88-.61,2.34,2.34,0,0,1,1.87.92c1,1.24,1.06,3.88.38,5.32C20,19.66,19.44,19.84,19.06,19.84ZM16.6,13.61c-.56.47-.43,1.46-.3,2,.39,1.66,1.67,3.43,2.62,3.64l.14,0c.39,0,.66-.4.82-.73.58-1.26.56-3.68-.31-4.72a1.8,1.8,0,0,0-1.43-.71A3,3,0,0,0,16.6,13.61Z"/><path class="cls-3" d="M19.06,19.9l-.28,0c-1.32-.3-2.69-2.41-3.09-4.11a2.51,2.51,0,0,1,.52-2.64h0a3.61,3.61,0,0,1,1.91-.62,2.41,2.41,0,0,1,1.92.93c1,1.26,1.07,3.93.39,5.38C20,19.71,19.46,19.9,19.06,19.9Zm-.92-7.3a3.53,3.53,0,0,0-1.85.6h0a2.42,2.42,0,0,0-.48,2.52c.4,1.68,1.73,3.74,3,4a1.07,1.07,0,0,0,.25,0c.36,0,.88-.18,1.28-1,.67-1.42.65-4-.37-5.26A2.3,2.3,0,0,0,18.14,12.6Zm.92,6.73-.15,0c-1-.22-2.27-2-2.67-3.68-.13-.56-.27-1.57.32-2.06a3.06,3.06,0,0,1,1.58-.51,1.85,1.85,0,0,1,1.48.73c.88,1.05.9,3.5.31,4.77C19.77,18.91,19.48,19.33,19.06,19.33Zm-.92-6.16a3,3,0,0,0-1.51.49c-.54.45-.4,1.41-.28,1.94.39,1.64,1.65,3.39,2.58,3.6h.13c.36,0,.61-.38.77-.7.58-1.24.55-3.63-.3-4.65A1.75,1.75,0,0,0,18.14,13.17Z"/><path class="cls-2" d="M17.74,21.21a14.47,14.47,0,0,0-.14,3.91l2.6,1.21,1.38-3.64Z"/><path class="cls-3" d="M20.2,26.38h0l-2.59-1.2s-.15-.06-.11-1.67a17.94,17.94,0,0,1,.15-2.14c0-.14.05-.21.11-.21h0l3.84,1.47s0,.05,0,.07l-1.39,3.65,0,0Zm-2.56-1.3,2.53,1.17,1.34-3.53-3.76-1.44A18.8,18.8,0,0,0,17.64,25.08Z"/><path class="cls-2" d="M20.53,21.69c-.25-.1-.88.94-1.41,2.32s-.76,2.57-.51,2.67l1.64.78L22.07,23c0-.1.1-.49.1-.49Z"/><path class="cls-3" d="M20.25,27.52h0l-1.64-.79c-.37-.14.08-1.72.47-2.74s1.09-2.36,1.44-2.36h.05l1.64.79s0,0,0,.06-.09.4-.09.48v0l-1.81,4.51,0,0Zm.25-5.78c-.22,0-.8.92-1.33,2.29s-.7,2.53-.54,2.6l1.59.76L22,23c0-.1.07-.35.09-.45l-1.6-.76Z"/><path class="cls-2" d="M22.17,22.47A7.74,7.74,0,0,0,21,24.88a7.89,7.89,0,0,0-.74,2.58,7.27,7.27,0,0,0,1.19-2.4A7.41,7.41,0,0,0,22.17,22.47Z"/><path class="cls-3" d="M20.26,27.52h0c-.05,0-.14-.06.09-.86.14-.49.36-1.13.61-1.8,0-.1.95-2.44,1.23-2.44h0c.06,0,.14,0-.08.86-.14.49-.36,1.13-.62,1.8C21.46,25.18,20.55,27.52,20.26,27.52Zm1.88-5A12.09,12.09,0,0,0,21,24.9a11.37,11.37,0,0,0-.76,2.49A10.76,10.76,0,0,0,21.39,25,10.62,10.62,0,0,0,22.14,22.54Z"/><path class="cls-2" d="M17.74,21.21a14.93,14.93,0,0,0,.2,3.91l2.26,1.21,1.38-3.64Z"/><path class="cls-3" d="M20.2,26.38h0l-2.26-1.21a16.52,16.52,0,0,1-.27-3.89s0-.12.09-.12h0l3.84,1.47s0,.05,0,.07l-1.39,3.65s0,0,0,0ZM18,25.08l2.2,1.17,1.34-3.53-3.75-1.44A20.18,20.18,0,0,0,18,25.08Z"/><path class="cls-2" d="M20.53,21.69c-.25-.1-.88.94-1.41,2.32s-.76,2.57-.51,2.67l1.64.78L22.07,23c0-.1.1-.49.1-.49Z"/><path class="cls-3" d="M20.25,27.52h0l-1.64-.79c-.37-.14.08-1.72.47-2.74s1.09-2.36,1.44-2.36h.05l1.64.79s0,0,0,.06-.09.4-.09.48v0l-1.81,4.51,0,0Zm.25-5.78c-.22,0-.8.92-1.33,2.29s-.7,2.53-.54,2.6l1.59.76L22,23c0-.1.07-.35.09-.45l-1.6-.76Z"/><path class="cls-2" d="M22.17,22.47A7.74,7.74,0,0,0,21,24.88a7.89,7.89,0,0,0-.74,2.58,7.27,7.27,0,0,0,1.19-2.4A7.41,7.41,0,0,0,22.17,22.47Z"/><path class="cls-3" d="M20.26,27.52h0c-.05,0-.14-.06.09-.86.14-.49.36-1.13.61-1.8,0-.1.95-2.44,1.23-2.44h0c.06,0,.14,0-.08.86-.14.49-.36,1.13-.62,1.8C21.46,25.18,20.55,27.52,20.26,27.52Zm1.88-5A12.09,12.09,0,0,0,21,24.9a11.37,11.37,0,0,0-.76,2.49A10.76,10.76,0,0,0,21.39,25,10.62,10.62,0,0,0,22.14,22.54Z"/><path class="cls-2" d="M11.2,21.21a14.48,14.48,0,0,1,.13,3.91L8.74,26.33,7.35,22.69Z"/><path class="cls-3" d="M8.74,26.38h0s0,0,0,0L7.3,22.7a.05.05,0,0,1,0-.07l3.85-1.47h0c.07,0,.1.07.12.21a16.32,16.32,0,0,1,.14,2.14c0,1.61-.06,1.65-.11,1.67l-2.59,1.2ZM7.43,22.72l1.34,3.53,2.53-1.17a18.83,18.83,0,0,0-.12-3.8Z"/><path class="cls-2" d="M8.41,21.69c.25-.1.88.94,1.41,2.32s.76,2.57.51,2.67l-1.65.78L6.87,23c0-.1-.1-.49-.1-.49Z"/><path class="cls-3" d="M8.68,27.52h0s0,0,0,0L6.81,23v0c0-.08-.07-.37-.1-.48a.06.06,0,0,1,0-.06l1.63-.78h.06c.35,0,1,1.19,1.43,2.36s.85,2.6.48,2.74l-1.64.79ZM6.92,23l1.79,4.44,1.59-.76c.17-.07,0-1.09-.53-2.6s-1.11-2.29-1.33-2.29h0l-1.6.76A2.39,2.39,0,0,1,6.92,23Z"/><path class="cls-2" d="M6.76,22.47A7.39,7.39,0,0,1,8,24.88a7.44,7.44,0,0,1,.73,2.58,7.61,7.61,0,0,1-1.18-2.4A7.85,7.85,0,0,1,6.76,22.47Z"/><path class="cls-3" d="M8.67,27.52c-.28,0-1.19-2.34-1.23-2.44-.25-.67-.47-1.31-.61-1.8-.23-.81-.14-.84-.09-.86h0c.29,0,1.2,2.34,1.23,2.44.26.67.48,1.31.62,1.8.22.8.14.84.08.86Zm-1.88-5A11.37,11.37,0,0,0,7.55,25a11.56,11.56,0,0,0,1.1,2.35A10.47,10.47,0,0,0,7.9,24.9,10.49,10.49,0,0,0,6.79,22.55Z"/><path class="cls-2" d="M11.2,21.21a15.38,15.38,0,0,1-.2,3.91L8.74,26.33,7.35,22.69Z"/><path class="cls-3" d="M8.74,26.38h0a0,0,0,0,1,0,0L7.3,22.7a.05.05,0,0,1,0-.07l3.85-1.47h0c.07,0,.09.08.09.12.07.35,0,3.8-.28,3.9l-2.24,1.2ZM7.43,22.72l1.34,3.53L11,25.08a19.39,19.39,0,0,0,.22-3.8Z"/><path class="cls-2" d="M8.41,21.69c.25-.1.88.94,1.41,2.32s.76,2.57.51,2.67l-1.65.78L6.87,23c0-.1-.1-.49-.1-.49Z"/><path class="cls-3" d="M8.68,27.52h0s0,0,0,0L6.81,23v0c0-.08-.07-.37-.1-.48a.06.06,0,0,1,0-.06l1.63-.78h.06c.35,0,1,1.19,1.43,2.36s.85,2.6.48,2.74l-1.64.79ZM6.92,23l1.79,4.44,1.59-.76c.17-.07,0-1.09-.53-2.6s-1.11-2.29-1.33-2.29h0l-1.6.76A2.39,2.39,0,0,1,6.92,23Z"/><path class="cls-2" d="M6.76,22.47A7.39,7.39,0,0,1,8,24.88a7.44,7.44,0,0,1,.73,2.58,7.61,7.61,0,0,1-1.18-2.4A7.85,7.85,0,0,1,6.76,22.47Z"/><path class="cls-3" d="M8.67,27.52c-.28,0-1.19-2.34-1.23-2.44-.25-.67-.47-1.31-.61-1.8-.23-.81-.14-.84-.09-.86h0c.29,0,1.2,2.34,1.23,2.44.26.67.48,1.31.62,1.8.22.8.14.84.08.86Zm-1.88-5A11.37,11.37,0,0,0,7.55,25a11.56,11.56,0,0,0,1.1,2.35A10.47,10.47,0,0,0,7.9,24.9,10.49,10.49,0,0,0,6.79,22.55Z"/><path class="cls-2" d="M18.51,25.45l-.59-3.88a1.31,1.31,0,0,0-.06-.27h0a3.46,3.46,0,0,0-6.66,0h0a2,2,0,0,0-.06.26l-.62,3.91s2.61.2,4,.2S18.51,25.45,18.51,25.45Z"/><path class="cls-3" d="M14.53,25.72c-1.38,0-4-.19-4-.19l0,0s0,0,0-.05l.61-3.91.06-.26h0a3.51,3.51,0,0,1,6.77,0l.06.28.59,3.88a.08.08,0,0,1,0,0,.05.05,0,0,1,0,0S15.89,25.72,14.53,25.72Zm-3.94-.3c.4,0,2.68.19,3.94.19s3.51-.18,3.91-.21l-.57-3.82-.06-.27a3.4,3.4,0,0,0-6.56,0h0l-.06.26Z"/><path class="cls-2" d="M18.51,25.62c0,1.47-1.79,2.67-4,2.67s-4-1.2-4-2.67,1.79-2.68,4-2.68S18.51,24.14,18.51,25.62Z"/><path class="cls-3" d="M14.52,28.35c-2.24,0-4.06-1.23-4.06-2.73s1.82-2.73,4.06-2.73,4.05,1.22,4.05,2.73S16.75,28.35,14.52,28.35Zm0-5.35c-2.17,0-3.94,1.17-3.94,2.62s1.77,2.61,3.94,2.61,3.93-1.17,3.93-2.61S16.69,23,14.52,23Z"/><path class="cls-2" d="M18.13,25.6c0,1.33-1.62,2.42-3.61,2.42S10.9,26.93,10.9,25.6s1.62-2.42,3.62-2.42S18.13,24.26,18.13,25.6Z"/><path class="cls-3" d="M14.52,28.07c-2,0-3.67-1.11-3.67-2.47s1.64-2.48,3.67-2.48,3.67,1.11,3.67,2.48S16.54,28.07,14.52,28.07Zm0-4.83c-2,0-3.56,1.05-3.56,2.36S12.56,28,14.52,28s3.55-1.06,3.55-2.36S16.48,23.24,14.52,23.24Z"/><path class="cls-2" d="M17.6,26.79,11.81,24l-.27.25,5.86,2.85a1.14,1.14,0,0,0,.25-.24Z"/><path class="cls-3" d="M17.4,27.13h0l-5.86-2.85s0,0,0,0a0,0,0,0,1,0-.05c.11-.1.19-.18.28-.25s0,0,.06,0l5.78,2.82a.18.18,0,0,1,.07.05,0,0,0,0,1,0,.07,1.24,1.24,0,0,1-.25.26Zm-5.76-2.92L17.4,27c.06-.05.11-.11.17-.17L11.82,24Z"/><path class="cls-2" d="M11.53,26.94l.13.1,5.8-2.82L17.19,24,11.4,26.79h0Z"/><path class="cls-3" d="M11.66,27.1h0L11.49,27a1.83,1.83,0,0,1-.13-.16s0,0,0,0a.05.05,0,0,1,0,0l5.79-2.82s.05,0,.06,0l.28.25a0,0,0,0,1,0,.05s0,0,0,0l-5.79,2.82Zm-.17-.29.08.09.1.07,5.69-2.76L17.18,24Z"/><path class="cls-2" d="M15.94,25.67c0,.52-.64.95-1.42.95s-1.43-.43-1.43-.95.64-1,1.43-1S15.94,25.14,15.94,25.67Z"/><path class="cls-3" d="M14.52,26.67c-.82,0-1.49-.45-1.49-1s.67-1,1.49-1,1.48.46,1.48,1S15.33,26.67,14.52,26.67Zm0-1.9c-.76,0-1.37.4-1.37.9s.61.89,1.37.89,1.36-.4,1.36-.89S15.27,24.77,14.52,24.77Z"/><path class="cls-2" d="M15.94,25.84c0,.53-.64.95-1.42.95s-1.43-.42-1.43-.95.64-1,1.43-1S15.94,25.31,15.94,25.84Z"/><path class="cls-3" d="M14.52,26.85c-.82,0-1.49-.45-1.49-1s.67-1,1.49-1,1.48.45,1.48,1S15.33,26.85,14.52,26.85Zm0-1.91c-.76,0-1.37.4-1.37.9s.61.9,1.37.9,1.36-.41,1.36-.9S15.27,24.94,14.52,24.94Z"/></g></g></svg>