<svg xmlns="http://www.w3.org/2000/svg" viewBox="0 0 29.56 29.56"><defs><style>.cls-1{fill:#a2dc61;}.cls-2{fill:#fff;}.cls-3{fill:#afca27;}</style></defs><g id="Layer_2" data-name="Layer 2"><g id="Layer_1-2" data-name="Layer 1"><path class="cls-1" d="M29.56,14.78A14.78,14.78,0,1,1,14.78,0,14.78,14.78,0,0,1,29.56,14.78Z"/><path class="cls-2" d="M6.37,15.71a2.63,2.63,0,0,0-.46,1.47c0,.64.5,1.15.6,1.78a3.79,3.79,0,0,0,.39,1.7,2.26,2.26,0,0,0,1,.73H8a12.79,12.79,0,0,0-.11-5.47s-.33-.8-.78-.75A1.31,1.31,0,0,0,6.37,15.71Z"/><path class="cls-3" d="M7.88,21.44h0a2.4,2.4,0,0,1-1-.74,2.41,2.41,0,0,1-.36-1.29,3,3,0,0,0,0-.44,3.1,3.1,0,0,0-.29-.84,2.72,2.72,0,0,1-.31-.95,2.68,2.68,0,0,1,.47-1.5,1.35,1.35,0,0,1,.81-.58c.48,0,.83.76.85.79a13.48,13.48,0,0,1,.13,5.49s0,.05-.07.05Zm0-.11H8a13.36,13.36,0,0,0-.14-5.39s-.32-.76-.73-.72a1.27,1.27,0,0,0-.72.54A2.58,2.58,0,0,0,6,17.17a2.84,2.84,0,0,0,.3.92,3.15,3.15,0,0,1,.31.86c0,.15,0,.3,0,.45A2.34,2.34,0,0,0,7,20.63,2.16,2.16,0,0,0,7.87,21.33Z"/><path class="cls-3" d="M7.7,20.41a1.18,1.18,0,0,0,.16-.69A2.24,2.24,0,0,0,7.57,19a3.22,3.22,0,0,1-.25-.39c-.11-.19.06-.59.1-.79a2.87,2.87,0,0,1,.13-.7.93.93,0,0,0,0-.44.57.57,0,0,0-.51-.53.87.87,0,0,0-.68.38.67.67,0,0,0-.11.69c.1.19.26.35.37.53a.77.77,0,0,1,.1.23,1.36,1.36,0,0,0-.08-.39,1.56,1.56,0,0,1-.34-.68c0-.33.3-.54.58-.61a.5.5,0,0,1,.51.29c.14.25,0,.58-.07.82s-.07.57-.14.84a.67.67,0,0,0,.08.63,4.82,4.82,0,0,1,.41.69h0a4.08,4.08,0,0,1-.33-.25A3.88,3.88,0,0,1,7,18.89a1.12,1.12,0,0,0,.06.23,1.64,1.64,0,0,0,.21.25,1.86,1.86,0,0,0,.26.23,1.31,1.31,0,0,0,.24.17,1.15,1.15,0,0,1,0,.37S7.72,20.3,7.7,20.41Z"/><path class="cls-2" d="M22.88,15.71a2.63,2.63,0,0,1,.46,1.47c-.06.64-.51,1.15-.6,1.78a3.67,3.67,0,0,1-.4,1.7,2.17,2.17,0,0,1-.95.73h-.17a12.73,12.73,0,0,1,.1-5.47s.34-.8.79-.75A1.31,1.31,0,0,1,22.88,15.71Z"/><path class="cls-3" d="M21.37,21.44h-.16s-.05,0-.07-.05a13.44,13.44,0,0,1,.13-5.48s.36-.85.85-.8a1.31,1.31,0,0,1,.8.58,2.62,2.62,0,0,1,.48,1.5,2.72,2.72,0,0,1-.31.95,3.5,3.5,0,0,0-.3.84c0,.14,0,.28,0,.44a2.41,2.41,0,0,1-.36,1.29,2.37,2.37,0,0,1-1,.74h0Zm-.13-.12h.14a2.22,2.22,0,0,0,.92-.7,2.43,2.43,0,0,0,.33-1.23c0-.15,0-.3.05-.45a3.15,3.15,0,0,1,.31-.86,3.1,3.1,0,0,0,.3-.92,2.63,2.63,0,0,0-.46-1.43,1.32,1.32,0,0,0-.72-.53c-.41,0-.73.72-.73.73A13.13,13.13,0,0,0,21.24,21.32Z"/><path class="cls-3" d="M21.55,20.41a1.27,1.27,0,0,1-.17-.69,2.5,2.5,0,0,1,.3-.74c.08-.13.18-.25.25-.39s-.06-.59-.1-.79a2.87,2.87,0,0,0-.13-.7.93.93,0,0,1,0-.44.57.57,0,0,1,.51-.53.87.87,0,0,1,.68.38.65.65,0,0,1,.1.69,6.3,6.3,0,0,1-.37.53,1.09,1.09,0,0,0-.09.23,1.36,1.36,0,0,1,.08-.39,1.56,1.56,0,0,0,.34-.68c0-.33-.3-.54-.58-.61a.5.5,0,0,0-.51.29c-.14.25,0,.58.07.82s.07.57.14.84a.7.7,0,0,1-.08.63,4.82,4.82,0,0,0-.41.69h0c.1-.09.23-.15.33-.25a3.88,3.88,0,0,0,.39-.42c0,.07,0,.15-.06.23l-.21.25a1.86,1.86,0,0,1-.26.23,1.1,1.1,0,0,1-.25.17,1.54,1.54,0,0,0,0,.37A1.79,1.79,0,0,0,21.55,20.41Z"/><path class="cls-2" d="M22.65,14.88S22.36,10.74,16,9.31h-3c-6.32,1.43-6.62,5.57-6.62,5.57s1.48,3.35,1.38,5.3S8,24.3,12.58,26.6a3.64,3.64,0,0,0,2,.4,3.62,3.62,0,0,0,2-.4c4.55-2.3,4.86-4.48,4.76-6.42S22.65,14.88,22.65,14.88Z"/><path class="cls-3" d="M14.8,27.07h-.51a3.71,3.71,0,0,1-1.74-.42C8,24.32,7.67,22.08,7.76,20.17S6.4,14.93,6.39,14.9a0,0,0,0,1,0,0s.38-4.19,6.67-5.62h3a9.53,9.53,0,0,1,5.72,3.35,5,5,0,0,1,.95,2.27,0,0,0,0,1,0,0s-1.47,3.36-1.37,5.27-.19,4.15-4.8,6.48A3.6,3.6,0,0,1,14.8,27.07ZM14.54,27h.26a3.64,3.64,0,0,0,1.68-.4c4.55-2.3,4.83-4.5,4.73-6.37s1.28-5.08,1.38-5.31-.54-4.14-6.56-5.5h-3a9.42,9.42,0,0,0-5.65,3.29,4.9,4.9,0,0,0-.92,2.21c.1.23,1.47,3.43,1.38,5.31s.19,4.07,4.73,6.37a3.69,3.69,0,0,0,1.68.4Z"/><path class="cls-3" d="M7.69,17.23s-.05,0,0,0a1.55,1.55,0,0,0,.06.23s0,0,0,0A2,2,0,0,0,7.69,17.23Z"/><path class="cls-3" d="M24.85,10.58a7.21,7.21,0,0,0-.34-1.29,10.74,10.74,0,0,0-2.3-3.14l.28-.09c.22-.09.52-.21.53-.49,0,0,0,0,0,0-.79.12-1.35-.5-1.93-.91A12.59,12.59,0,0,0,19,3.44a9.44,9.44,0,0,0-4.56-.87,11.83,11.83,0,0,0-4.46,1,5.92,5.92,0,0,0-1.65,1.2,5.37,5.37,0,0,0-.56.7l-.14.22A10.24,10.24,0,0,0,6.37,7.07,7.59,7.59,0,0,0,5.26,9.13a8,8,0,0,0-.49,2.26A5.25,5.25,0,0,0,5,13.28a6.42,6.42,0,0,0,.82,1.58,14.05,14.05,0,0,1,1.53,3c.15.47.29.94.4,1.42a1.42,1.42,0,0,0,.18.27s.15-2.08.2-2.7c-.1-.55-.3-1.05-.41-1.6a4.79,4.79,0,0,1,.43-3A.85.85,0,0,1,8.25,12a.56.56,0,0,0,.05-.08.09.09,0,0,1,.06,0l0,0a2.38,2.38,0,0,1,1.86-.63,20.37,20.37,0,0,1,2.2.29,4.55,4.55,0,0,0,.39.38,7.25,7.25,0,0,0,1.52.94,7.77,7.77,0,0,0,3.25.71,5,5,0,0,0,2.77-.84,5.88,5.88,0,0,0,.63-.52,2.88,2.88,0,0,1,.63,2.08,4.22,4.22,0,0,1-.08,1c-.1.55-.3,1.05-.4,1.6.05.62.18,2.72.2,2.7a1.14,1.14,0,0,0,.17-.27c.12-.48.25-.95.41-1.42a13.28,13.28,0,0,1,1.36-2.75,1.8,1.8,0,0,1,.2-.19,2.84,2.84,0,0,0,.73-1,4,4,0,0,0,.3-1.22l0-.06a3.41,3.41,0,0,0,.31-1A3.05,3.05,0,0,0,24.85,10.58Z"/><path class="cls-3" d="M21.35,19.63h0c-.07,0-.07,0-.2-2,0-.33,0-.62-.06-.8h0a7.35,7.35,0,0,1,.2-.84,6.53,6.53,0,0,0,.2-.76,4.62,4.62,0,0,0,.07-1,2.9,2.9,0,0,0-.58-2,4.68,4.68,0,0,1-.58.48,5,5,0,0,1-2.81.86,7.84,7.84,0,0,1-3.27-.71,7.3,7.3,0,0,1-1.53-1,3.33,3.33,0,0,1-.34-.32l-.05,0-.58-.1a14.08,14.08,0,0,0-1.59-.19h-.17a2.25,2.25,0,0,0-1.66.61h0a.05.05,0,0,1,0,0h0l0,.05,0,0a.64.64,0,0,0-.14.27h0a4.69,4.69,0,0,0-.42,3c0,.26.12.51.19.76a7.37,7.37,0,0,1,.21.84h0c0,.18,0,.47-.05.8-.14,2-.14,2-.2,2l0,0a1.09,1.09,0,0,1-.19-.28h0a13.6,13.6,0,0,0-.41-1.42,13.51,13.51,0,0,0-1.52-3,7,7,0,0,1-.83-1.59,5.38,5.38,0,0,1-.18-1.91,7.9,7.9,0,0,1,.5-2.28A7.61,7.61,0,0,1,6.33,7,10.1,10.1,0,0,1,7.54,5.69a2.39,2.39,0,0,0,.13-.21,4.55,4.55,0,0,1,.57-.71A6.2,6.2,0,0,1,9.91,3.56a12.13,12.13,0,0,1,4.48-1.05l.6,0a9.71,9.71,0,0,1,4,.89,12.84,12.84,0,0,1,2.12,1.21l.35.26a2.29,2.29,0,0,0,1.35.65H23l.06,0a.09.09,0,0,1,0,.06c0,.33-.38.47-.57.54l-.19.07.22.24a9.67,9.67,0,0,1,2,2.85,8,8,0,0,1,.33,1.3,3.16,3.16,0,0,1,0,1,3.37,3.37,0,0,1-.32,1.05l0,0h0a3.82,3.82,0,0,1-.3,1.22A2.88,2.88,0,0,1,23.52,15l-.19.18A12.52,12.52,0,0,0,22,17.9a13.6,13.6,0,0,0-.41,1.42h0a1.24,1.24,0,0,1-.18.28A.05.05,0,0,1,21.35,19.63ZM7.76,19.28l.08.13c0-.33.08-1.16.12-1.75,0-.32,0-.61.06-.79s-.13-.55-.2-.82a6.69,6.69,0,0,1-.2-.77,4.77,4.77,0,0,1,.43-3A.77.77,0,0,1,8.21,12v0l0-.06s.05-.05.08-.05h0a2.33,2.33,0,0,1,1.73-.65h.17c.55,0,1.09.12,1.61.2l.59.09,0,0,.06.06a3.27,3.27,0,0,0,.33.32,7.23,7.23,0,0,0,1.5.93,7.72,7.72,0,0,0,3.22.71,5,5,0,0,0,2.75-.84,6.25,6.25,0,0,0,.62-.51,0,0,0,0,1,0,0l0,0a3,3,0,0,1,.65,2.12,4.86,4.86,0,0,1-.08,1c-.05.26-.13.52-.2.77s-.15.54-.2.82,0,.47.05.79c0,.59.1,1.42.13,1.75l.08-.13c.12-.48.25-1,.41-1.41a12.83,12.83,0,0,1,1.36-2.77h0c.06-.07.13-.13.2-.2a2.61,2.61,0,0,0,.71-1,3.71,3.71,0,0,0,.3-1.2,0,0,0,0,1,0,0v0l0,0a3.46,3.46,0,0,0,.31-1,3.22,3.22,0,0,0,0-1,7.22,7.22,0,0,0-.33-1.27,9.47,9.47,0,0,0-2-2.83l-.28-.3a.07.07,0,0,1,0-.06l0,0A1.71,1.71,0,0,0,22.47,6c.22-.08.45-.19.49-.39h-.17a2.32,2.32,0,0,1-1.42-.68L21,4.68a12.16,12.16,0,0,0-2.1-1.19A9.49,9.49,0,0,0,15,2.6l-.6,0a12.06,12.06,0,0,0-4.43,1A6.21,6.21,0,0,0,8.32,4.85a3.93,3.93,0,0,0-.55.7,1.91,1.91,0,0,0-.14.21h0A10.6,10.6,0,0,0,6.42,7.1,8,8,0,0,0,5.31,9.15a8.41,8.41,0,0,0-.49,2.24A5.33,5.33,0,0,0,5,13.26a6.93,6.93,0,0,0,.81,1.56,13.24,13.24,0,0,1,1.54,3.05C7.5,18.32,7.64,18.8,7.76,19.28Z"/><path class="cls-2" d="M7.91,9.56a1.82,1.82,0,0,0,.15.23,3,3,0,0,0,.45.49,8.27,8.27,0,0,1-.68-1.9A5.22,5.22,0,0,1,7.9,5.72s-.05,0-.06,0A6.46,6.46,0,0,0,7.5,6.82a5,5,0,0,0,0,1.33A5,5,0,0,0,7.91,9.56Z"/><path class="cls-3" d="M8.51,10.34h0A4.79,4.79,0,0,1,8,9.82c0-.06-.09-.14-.15-.23a5.06,5.06,0,0,1-.38-1.43V8.08a4.5,4.5,0,0,1,0-1.27A4.32,4.32,0,0,1,7.7,6l.09-.25a.14.14,0,0,1,.1-.08.09.09,0,0,1,.06,0s0,0,0,.06a5.15,5.15,0,0,0-.08,2.64,9.33,9.33,0,0,0,.68,1.89s0,.05,0,.07ZM7.74,6.19a3.71,3.71,0,0,0-.18.64,4.69,4.69,0,0,0,0,1.24v.08A5.22,5.22,0,0,0,8,9.54l.14.22.21.24a10,10,0,0,1-.54-1.6A4.87,4.87,0,0,1,7.74,6.19Z"/><path class="cls-2" d="M19.92,11a8,8,0,0,1-1.73-.37l-.32-.12a4.36,4.36,0,0,0,2.22.87,2.81,2.81,0,0,0,1.19-.1,2.43,2.43,0,0,1-.91,1.1s-.05,0-.1,0a.31.31,0,0,1-.11.09,2.74,2.74,0,0,1-.63.22,5.46,5.46,0,0,1-2.66-.18,7.5,7.5,0,0,1-2.66-1.34,6,6,0,0,1-.69-.53,7.93,7.93,0,0,1-.82-.92l0-.05a6.42,6.42,0,0,0,5.08,3.57l.33,0a5.65,5.65,0,0,1-1.4-.09,9.27,9.27,0,0,1-3.53-1.6c-.91-.63-1.68-1.68-2.8-1.94a1.08,1.08,0,0,0-1.11.44,1.35,1.35,0,0,0,0,.29c.18-.85,1.44-.09,1.77.17s.84.76,1.28,1.11a11.2,11.2,0,0,0,2.74,1.59,4.91,4.91,0,0,0,4.71-.19,2.94,2.94,0,0,0,.77-.39,2.77,2.77,0,0,0,1.11-1.54,3.2,3.2,0,0,0,.51-.29,1.75,1.75,0,0,0,.44-.63A3.67,3.67,0,0,1,19.92,11Z"/><path class="cls-3" d="M17.49,13.8A6.72,6.72,0,0,1,15,13.29,11,11,0,0,1,12.3,11.7c-.22-.17-.43-.36-.63-.54s-.43-.4-.66-.58A2.71,2.71,0,0,0,9.76,10a.39.39,0,0,0-.43.34,0,0,0,0,1-.05,0,.07.07,0,0,1-.06,0,1,1,0,0,1,0-.3.06.06,0,0,1,0,0,1.12,1.12,0,0,1,.93-.49.85.85,0,0,1,.23,0,4.67,4.67,0,0,1,2,1.22,9.77,9.77,0,0,0,.87.72,9.27,9.27,0,0,0,3.51,1.59l.44.07A6.41,6.41,0,0,1,12.61,9.7a.08.08,0,0,1,0-.08.06.06,0,0,1,.08,0l0,0a7.1,7.1,0,0,0,.82.91,4.56,4.56,0,0,0,.68.53,7.57,7.57,0,0,0,2.64,1.34,5.35,5.35,0,0,0,2.64.18,3.36,3.36,0,0,0,.61-.22l0,0,.09-.06a.15.15,0,0,1,.12,0,2.33,2.33,0,0,0,.82-1,2.94,2.94,0,0,1-1.1.07,4.57,4.57,0,0,1-2.25-.89.06.06,0,0,1,0-.07s.05,0,.07,0l.32.11a7.8,7.8,0,0,0,1.72.38h.35a3.51,3.51,0,0,0,2.29-.78.08.08,0,0,1,.08,0,.1.1,0,0,1,0,.07,2,2,0,0,1-.46.66,4.19,4.19,0,0,1-.5.28,2.8,2.8,0,0,1-1.12,1.54,3.2,3.2,0,0,1-.78.4A3.8,3.8,0,0,1,17.49,13.8ZM9.76,9.92a2.75,2.75,0,0,1,1.32.58c.23.18.45.38.67.57s.4.37.62.54a10.57,10.57,0,0,0,2.72,1.57,6.47,6.47,0,0,0,2.4.51A3.74,3.74,0,0,0,19.75,13h0a3.21,3.21,0,0,0,.76-.39,2.73,2.73,0,0,0,1.08-1.5l0,0a3.63,3.63,0,0,0,.51-.28,2.31,2.31,0,0,0,.31-.39,3.77,3.77,0,0,1-2.17.66l-.36,0a8.21,8.21,0,0,1-1.72-.37,4.9,4.9,0,0,0,1.9.64,2.88,2.88,0,0,0,1.16-.1.06.06,0,0,1,.06,0,0,0,0,0,1,0,.06,2.42,2.42,0,0,1-.94,1.13h-.05l0,0-.09.07,0,0a3.23,3.23,0,0,1-.64.23,5.58,5.58,0,0,1-2.7-.18,7.8,7.8,0,0,1-2.68-1.36,4.56,4.56,0,0,1-.68-.53c-.18-.17-.36-.35-.52-.53a6.47,6.47,0,0,0,4.78,3l.33,0a.06.06,0,0,1,.05.06,0,0,0,0,1-.05.05,5.37,5.37,0,0,1-1.42-.08,9.3,9.3,0,0,1-3.55-1.62,10,10,0,0,1-.89-.72,4.45,4.45,0,0,0-1.89-1.2l-.21,0a1,1,0,0,0-.83.43.13.13,0,0,0,0,.06A.48.48,0,0,1,9.76,9.92Z"/><path class="cls-2" d="M21,6.8a.63.63,0,0,0,.1.12l.35.15,0,0a4.64,4.64,0,0,1-1.12-.72l-.89-.65-.3-.21.36.3c.24.19.49.37.72.56a4.34,4.34,0,0,0,.64.49A.08.08,0,0,1,21,6.8Z"/><path class="cls-3" d="M21.47,7.12h0L21.1,7V7A.68.68,0,0,1,21,6.84h0a0,0,0,0,1-.07,0,3.34,3.34,0,0,1-.48-.36l-.16-.13-.39-.31-.33-.26c-.14-.1-.27-.22-.37-.3a.06.06,0,1,1,.07-.09l.31.22.34.25.55.39a4.37,4.37,0,0,0,1.1.72s0,0,0,0a0,0,0,0,1,0,0s0,0,0,0A.09.09,0,0,1,21.47,7.12Z"/><path class="cls-2" d="M22.66,7.65a4.29,4.29,0,0,1,1.4.95c.13.13.25.26.37.4a4,4,0,0,0-1.91-1.49l-.75-.18C22.06,7.45,22.38,7.53,22.66,7.65Z"/><path class="cls-3" d="M24.43,9.06l0,0c-.11-.13-.24-.27-.37-.4a4.46,4.46,0,0,0-1.38-.94l-.42-.15-.47-.17a.06.06,0,0,1,0-.11l.48.12.28.06A4.05,4.05,0,0,1,24.48,9a.06.06,0,0,1,0,.08Z"/><path class="cls-2" d="M24.35,9.12a5.24,5.24,0,0,0-.94-.88,6.7,6.7,0,0,0-1.55-.74,2.5,2.5,0,0,1-.78-.44L21,7a13.74,13.74,0,0,1-1.43-1.08c-.48-.38-.92-.8-1.4-1.18l-.36-.28-.53-.36a6.17,6.17,0,0,0-4.65-.92A5.33,5.33,0,0,0,9.15,5.46a4.07,4.07,0,0,0-.56,1.85,2.91,2.91,0,0,0,.12,1c0-.22.06-.43.08-.59a1.55,1.55,0,0,1,0-.21,3.75,3.75,0,0,1,.18-1,3.5,3.5,0,0,1,1-1.72,5.4,5.4,0,0,1,4.13-1.19,8.15,8.15,0,0,1,3.73,1.7A14.49,14.49,0,0,0,20.23,6.9a12.54,12.54,0,0,1-3.33-1c-.54-.25-1.07-.53-1.6-.8s-1.07-.43-1.61-.66c0,0-.1.07-.07.08,1.89,1,3.6,2.23,5.7,2.72.52.12,1.06.19,1.59.28a4.47,4.47,0,0,1,1,.31h0a6.83,6.83,0,0,1,2.39,1.56,3.52,3.52,0,0,1,.41.56,2.84,2.84,0,0,0-.09-.42C24.55,9.35,24.41,9.2,24.35,9.12Z"/><path class="cls-3" d="M24.77,10l-.05,0a3.5,3.5,0,0,0-.4-.55,6.58,6.58,0,0,0-2.38-1.54h0a4.13,4.13,0,0,0-1-.3l-.44-.08c-.38-.06-.77-.12-1.15-.21A15.69,15.69,0,0,1,15.1,5.41c-.49-.28-1-.57-1.5-.83a.09.09,0,0,1,0-.09.15.15,0,0,1,.13-.11h0q.33.15.66.27a9.61,9.61,0,0,1,.95.4l.33.17c.41.21.84.43,1.26.63a12.55,12.55,0,0,0,2.94.93,11.58,11.58,0,0,1-1.38-.94l-.63-.47a8.17,8.17,0,0,0-3.7-1.68,4.4,4.4,0,0,0-.64,0,5.14,5.14,0,0,0-3.44,1.22,3.56,3.56,0,0,0-1,1.68,3.79,3.79,0,0,0-.18,1l0,.22a.59.59,0,0,0,0,.14,2.92,2.92,0,0,0-.06.44.1.1,0,0,1,0,.06s-.06,0-.06,0a3,3,0,0,1-.13-1.06A4.18,4.18,0,0,1,9.1,5.43a5.36,5.36,0,0,1,3.5-2.3,6.31,6.31,0,0,1,4.69.93l.53.36.3.24.07,0,.72.6.67.58.28.22A11.76,11.76,0,0,0,21,7l.07,0h0a2.38,2.38,0,0,0,.76.43l.21.08a5.67,5.67,0,0,1,1.35.67,4.68,4.68,0,0,1,.95.89l0,0a3.72,3.72,0,0,1,.29.37v0a2.13,2.13,0,0,1,.1.42.05.05,0,0,1,0,.06ZM22,7.78h0A6.61,6.61,0,0,1,24.4,9.36a3.88,3.88,0,0,1,.26.31l0-.11c-.11-.15-.22-.28-.29-.36l0,0a5.4,5.4,0,0,0-.93-.87,6.06,6.06,0,0,0-1.33-.65l-.21-.09a2.72,2.72,0,0,1-.8-.44h0l-.07,0a10.87,10.87,0,0,1-1.16-.86L19.51,6c-.23-.18-.46-.38-.68-.57s-.47-.41-.71-.6l-.07,0-.3-.24-.52-.35a6.25,6.25,0,0,0-4.61-.92A5.4,5.4,0,0,0,9.19,5.5a4,4,0,0,0-.54,1.82,2.62,2.62,0,0,0,0,.71s0-.09,0-.14a.68.68,0,0,0,0-.14c0-.07,0-.14,0-.21a3.94,3.94,0,0,1,.18-1,3.63,3.63,0,0,1,1-1.74,5.26,5.26,0,0,1,3.52-1.24,4.68,4.68,0,0,1,.66,0,8.23,8.23,0,0,1,3.75,1.7l.63.47a9.13,9.13,0,0,0,1.7,1.1.05.05,0,0,1,0,.07.05.05,0,0,1-.06,0,12.27,12.27,0,0,1-3.34-1c-.43-.2-.86-.41-1.27-.63l-.33-.17c-.31-.15-.63-.27-.94-.39L13.7,4.5c.49.26,1,.54,1.45.81a15.91,15.91,0,0,0,4.18,1.87c.38.09.77.15,1.15.21l.44.07A4.48,4.48,0,0,1,22,7.78Z"/><path class="cls-2" d="M23.59,11A5.93,5.93,0,0,1,24,13a4.3,4.3,0,0,1,0,.51,3.8,3.8,0,0,1-.87,2,4.39,4.39,0,0,0,.17-1,4.21,4.21,0,0,0-.08-.87c0,.4-.13.8-.2,1.2a2,2,0,0,1-.24.73,4.36,4.36,0,0,1-.32.73c-.12.22-.3.45-.45.7a1.64,1.64,0,0,0,0,.23A2,2,0,0,0,22,18a.5.5,0,0,0,.05-.07,10.62,10.62,0,0,1,.86-1.72A3.7,3.7,0,0,0,23.59,11Z"/><path class="cls-3" d="M22,18h0a.07.07,0,0,1-.05,0,1.3,1.3,0,0,1,0-.59.45.45,0,0,0,0-.11c0-.08,0-.16,0-.24a0,0,0,0,0,0,0l.21-.32c.09-.13.17-.26.24-.38a4.34,4.34,0,0,0,.32-.72h0a1.92,1.92,0,0,0,.23-.71l.06-.32c.05-.28.11-.58.14-.88a.06.06,0,0,1,.06,0h0a.06.06,0,0,1,.06,0l0,.22a3.67,3.67,0,0,1,0,.66,4.6,4.6,0,0,1-.11.7,3.57,3.57,0,0,0,.69-1.77,4,4,0,0,0,0-.5,6.31,6.31,0,0,0-.37-2,.06.06,0,0,1,0-.07s.06,0,.07,0a3.17,3.17,0,0,1,.75,2.5,3.91,3.91,0,0,1-1.47,2.74c-.11.21-.23.42-.35.62a4.46,4.46,0,0,0-.51,1.08A.44.44,0,0,1,22,18Zm.06-.95c0,.07,0,.14,0,.21a.49.49,0,0,0,0,.12,2.23,2.23,0,0,0,0,.37,5.19,5.19,0,0,1,.5-1c.12-.2.24-.41.34-.62l0,0a3.84,3.84,0,0,0,1.44-2.66,3.18,3.18,0,0,0-.53-2.18A5.42,5.42,0,0,1,24,13a4.25,4.25,0,0,1,0,.51,4,4,0,0,1-.88,2.06,0,0,0,0,1-.07,0,0,0,0,0,1,0-.06,5.19,5.19,0,0,0,.16-1,1.7,1.7,0,0,0,0-.45l-.09.49L23,14.9a1.9,1.9,0,0,1-.24.74,4.58,4.58,0,0,1-.32.74l-.24.38Z"/><path class="cls-2" d="M6.71,16.42a10.81,10.81,0,0,1-.65-1.21,4.6,4.6,0,0,1-.28-.89,3.47,3.47,0,0,1-.16-.91,2.13,2.13,0,0,1,.07-.55,4.67,4.67,0,0,1,.4-1.25,4.66,4.66,0,0,0-.81,1.84,3.19,3.19,0,0,1-.18-.87A3.07,3.07,0,0,1,6,10.36a5.87,5.87,0,0,1,.65-.67,3.59,3.59,0,0,0-1.82,2.16c-.25.83-.29,2.35.54,2.93a5.37,5.37,0,0,0,.73,1.48,9.46,9.46,0,0,0,1.16,1.45A3.32,3.32,0,0,0,6.71,16.42Z"/><path class="cls-3" d="M7.25,17.77l0,0A9.85,9.85,0,0,1,6,16.29a5.49,5.49,0,0,1-.73-1.48c-.81-.58-.81-2.09-.54-3a3.67,3.67,0,0,1,1.85-2.2.05.05,0,0,1,.07,0,0,0,0,0,1,0,.07A5.06,5.06,0,0,0,6,10.4a3.07,3.07,0,0,0-.88,2.18,3,3,0,0,0,.12.65,4.71,4.71,0,0,1,.78-1.65.05.05,0,1,1,.09.05,5,5,0,0,0-.4,1.24,2.17,2.17,0,0,0-.06.54,3.35,3.35,0,0,0,.16.9,4.18,4.18,0,0,0,.27.88,10,10,0,0,0,.65,1.2,3.64,3.64,0,0,1,.55,1.31.06.06,0,0,1,0,.06Zm-1-7.84a3.83,3.83,0,0,0-1.43,1.94c-.25.86-.26,2.32.53,2.86l0,0a5,5,0,0,0,.72,1.47,10,10,0,0,0,1,1.31,3.67,3.67,0,0,0-.5-1.09A9.36,9.36,0,0,1,6,15.23a4.27,4.27,0,0,1-.29-.9,3.76,3.76,0,0,1-.15-.92,1.88,1.88,0,0,1,.06-.56,3.33,3.33,0,0,1,.16-.64,3.72,3.72,0,0,0-.45,1.25s0,0,0,0a0,0,0,0,1-.06,0A3.09,3.09,0,0,1,5,12.59,3.13,3.13,0,0,1,6,10.32,4.1,4.1,0,0,1,6.3,9.93Z"/><path class="cls-3" d="M12.86,15.9a3.26,3.26,0,0,0-1.16-.43,6.58,6.58,0,0,0-1.45-.31,1.5,1.5,0,0,0-1.41.72l0,0a0,0,0,0,0,0,0s0,.12,0,.12.27-.14.4-.22a1.44,1.44,0,0,1,1.15-.08l1.2.3a3.27,3.27,0,0,0,1,.22C12.7,16.29,13,16,12.86,15.9Z"/><path class="cls-3" d="M14.4,22.21a1.39,1.39,0,0,0,.35-.09,2.8,2.8,0,0,0,.64-.44l0,0a1.68,1.68,0,0,1-1.58.18c-.25-.11-.62-.29-.7-.58a1.16,1.16,0,0,1,0-.32L13,21.2a1,1,0,0,0,0,.46A1.91,1.91,0,0,0,14.4,22.21Z"/><path class="cls-3" d="M11.59,18a.55.55,0,1,1-1.09,0,.55.55,0,1,1,1.09,0Z"/><path class="cls-2" d="M11.11,17.82a.2.2,0,0,1-.2.21.21.21,0,0,1-.21-.21.2.2,0,0,1,.21-.2A.2.2,0,0,1,11.11,17.82Z"/><path class="cls-3" d="M16.27,15.9a3.21,3.21,0,0,1,1.15-.43,6.67,6.67,0,0,1,1.46-.31,1.51,1.51,0,0,1,1.41.72l0,0v0s0,.12,0,.12-.27-.14-.4-.22a1.44,1.44,0,0,0-1.15-.08l-1.2.3a3.33,3.33,0,0,1-1,.22C16.42,16.29,16.14,16,16.27,15.9Z"/><path class="cls-3" d="M18.63,18a.55.55,0,1,1-1.1,0,.55.55,0,1,1,1.1,0Z"/><path class="cls-2" d="M18.15,17.82a.21.21,0,0,1-.21.21.2.2,0,0,1-.2-.21.2.2,0,0,1,.2-.2A.2.2,0,0,1,18.15,17.82Z"/><path class="cls-2" d="M17.92,23a20.54,20.54,0,0,1-6.73,0s.54,2.79,3.2,2.9h.33C17.37,25.74,17.92,23,17.92,23Z"/><path class="cls-3" d="M14.6,25.91h-.19v0h0C11.71,25.8,11.13,23,11.13,23a0,0,0,0,1,0-.05,0,0,0,0,1,0,0,14.86,14.86,0,0,0,3.35.27,14.8,14.8,0,0,0,3.35-.27.07.07,0,0,1,.06,0A.08.08,0,0,1,18,23s-.59,2.83-3.25,2.95H14.6Zm-.2-.11h.32A3.5,3.5,0,0,0,17.84,23a16.64,16.64,0,0,1-3.29.24A16.59,16.59,0,0,1,11.27,23a3.5,3.5,0,0,0,3.12,2.76Z"/></g></g></svg>